<svg xmlns="http://www.w3.org/2000/svg" width="158.57" height="114.69" viewBox="0 0 158.57 114.69">
	<style type="text/css">
		.st2{fill:#a0b718;}
		.st1{fill:#a8cb17;}
		.st4{fill:#ff690f;}
		.st3{fill:#f1d291;}
		.st6{fill:#3393a0;}
		.st5{fill:#214044;}
		.st8{fill:#fefff1;}
		.st10{fill:#0a84b7;}
		.st7{fill:#b58c43;}
		.st11{fill:#0b769b;}
		.st9{fill:#e84d00;}
		.st0{fill:#135353;}
	</style>
	<path class="st0" d="M130.05,47.29C130.24,47.97 132.25,49.3 132.93,49.5C133.7,49.72 134.86,49.98 135.5,49.5C136.84,48.48 132.75,46.75 134.03,45.61C135.04,44.69 136.57,44.62 137.81,45.2C139.04,45.79 140.04,46.77 141.24,47.43C142.55,48.15 143.81,48.35 144.67,47.79C145.02,47.33 144.64,46.74 144.4,46.21C144.15,45.66 145,45.53 144.99,44.92C144.98,44.31 144.67,43.89 143.86,43.25C144.14,42.76 144.07,42.16 143.91,41.62C143.77,41.16 142.33,40.62 142.52,40.19C143.02,39.06 140.38,38.22 138.47,37.77C135.48,37.06 132.18,37.8 129.36,36.58C128.74,36.31 128.16,35.94 127.5,35.8C126.84,35.66 126.05,35.79 125.66,36.35C125.18,37.03 125.52,38 126.07,38.64C128.45,41.42 129.04,43.65 130.05,47.29"/>
	<path class="st0" d="M11.64,26.54C11.02,26.76 10.36,26.77 9.71,26.89C7.24,27.36 7.13,26.46 7.15,25.8C7.16,25.22 8.93,24.59 9.29,24.14C9.66,23.69 9.91,22.99 9.52,22.57C6.44,21.66 3.1,22.78 1.3,22.17C-1.07,21.25 0.31,19.5 1.45,19.42C1.28,19 1.46,18.06 1.75,17.66C2.25,16.94 3.66,16.58 4.09,16.75C3.95,16.09 4.54,15.36 5.19,15.18C6.16,14.91 7.07,15.33 7.24,15.09C7.78,14.33 10.17,14.58 12.12,15.36L19.95,18.49C20.77,18.82 21.53,19.3 22.1,19.98C25.71,24.27 13.91,25.74 11.64,26.54"/>
	<path class="st1" d="M41.69,17.79C39.9,17.66 38.1,17.87 36.31,17.97C31.98,18.22 27.62,17.87 23.39,16.93C21.15,16.42 18.5,15.85 16.78,17.38C15.48,18.53 15.26,20.45 15.24,22.19C15.22,23.33 15.27,24.55 15.91,25.5C17.15,27.33 19.78,27.27 21.96,27.57C25.64,28.09 28.97,30.16 32.65,30.7C34.75,31 36.89,30.79 39.02,30.94C42.89,31.22 46.56,32.67 50.17,34.11C50.21,37.64 50.86,41.08 51.88,44.43C52.65,46.97 55.01,47.44 56.12,49.89C57.62,53.21 56.04,57.83 57.74,61.01C57.98,61.46 60.17,62.58 60.58,62.89C61.15,63.3 61.9,63.32 62.6,63.33C70.4,63.45 78.2,63.56 86,63.67C87.75,63.7 96.18,61.43 97.51,60.28C99.88,58.25 95.14,54.66 93.81,51.84C91.44,46.83 88.24,45.27 87.53,39.78C87.42,38.94 87.66,35.88 88.96,35.75C94.26,35.22 99.55,35.19 104.6,36.93C106.89,37.71 109.3,37 111.44,38.12C116.78,40.89 122.45,43.04 128.29,44.5C129.11,42.13 129.45,39.58 129.27,37.07C129.22,36.35 129.11,35.58 128.67,35C128.29,34.48 127.69,34.17 127.12,33.88C121.34,30.94 115.5,28.11 109.6,25.41C107.81,24.59 106.01,23.78 104.08,23.44C100.89,22.87 97.56,23.61 94.41,22.89C92.55,22.47 90.83,21.56 88.99,21.02C86.3,20.25 84.77,19.58 82.07,20.79C80.67,19.86 84.97,15.81 82.07,15.34C81.44,15.24 77.84,14.17 77.21,14.03C71.65,12.78 70.19,14.5 66.42,14.03C64.04,13.73 59.01,12.96 57.11,15.21C56.35,16.1 57.75,19.64 57.03,20.24C56.03,21.06 52.9,20.32 51.78,20.11C48.38,19.48 45.17,18.03 41.69,17.79"/>
	<path class="st2" d="M77.96,18.98C77.44,18.71 76.82,18.75 76.23,18.79C71.93,19.03 67.18,17.06 62.92,17.29C58.77,17.52 60.32,21.53 60.93,25.02C60.98,25.29 61.03,25.56 61.21,25.77C61.43,26.03 61.79,26.11 62.12,26.2C63.42,26.56 64.6,27.39 65.39,28.49C65.66,28.87 65.89,29.29 66.28,29.54C66.68,29.8 67.19,29.83 67.66,29.86C69.2,29.96 70.73,30.05 72.27,30.15C72.81,30.18 73.36,30.22 73.88,30.07C74.43,29.92 74.91,29.58 75.38,29.25C75.99,28.82 76.6,28.38 77.21,27.95C77.5,27.74 77.8,27.53 77.97,27.22C78.3,26.66 78.13,25.96 78.14,25.31C78.14,24.17 78.7,23.11 78.94,22C79.19,20.88 78.99,19.49 77.96,18.98"/>
	<path class="st2" d="M59.34,28.08C60.81,29.31 61.42,30.8 62.42,32.36C62.99,33.28 64.05,34.37 65.19,33.85C65.47,33.73 65.53,33.25 65.29,33.06C64.81,32.68 64.24,32.59 63.8,32.14C63.26,31.59 62.96,30.85 62.56,30.21C61.85,29.09 60.92,28.18 59.84,27.43C59.46,27.17 58.97,27.78 59.34,28.08"/>
	<path class="st2" d="M68.61,29.1C68.95,32.15 66.75,34.47 66.5,37.4C66.29,39.89 67.56,42.23 67.34,44.67C67.22,46.07 66.28,46.68 66.58,48.18C66.81,49.29 67.73,49.97 68.35,50.82C69.89,52.93 71.07,54.87 71.78,57.44C71.95,58.05 72.91,57.79 72.74,57.17C72.11,54.91 71.23,53.39 70.09,51.37C68.34,48.28 68.31,46.2 68.69,42.89C68.74,42.41 68.3,41.91 68.29,41.46C67.84,29.56 68.52,37.51 69.04,33.38C69.29,31.4 69.61,31.38 69.19,29.02C69.13,28.7 68.57,28.77 68.61,29.1"/>
	<path class="st2" d="M82.51,21.93C81.93,24.72 81.92,28 84.36,29.94C84.81,30.3 85.47,29.69 85.01,29.28C82.89,27.39 82.68,24.76 83.09,22.09C83.15,21.72 82.59,21.54 82.51,21.93"/>
	<path class="st2" d="M85.92,31.53C86.16,31.85 86.37,32.14 86.67,32.39C87.08,32.74 87.6,32.32 87.39,31.84C87.24,31.52 87.06,31.27 86.85,30.99C86.44,30.44 85.5,30.98 85.92,31.53"/>
	<path class="st2" d="M51.72,30.94C51.38,29.76 51.56,28.27 51.43,27.03C51.32,25.88 51.61,24.76 51.49,23.65C51.46,23.34 51.11,23.15 50.86,23.39C49.98,24.22 50.14,25.63 50.25,26.74C50.39,28.17 50.25,29.85 50.69,31.22C50.9,31.87 51.91,31.6 51.72,30.94"/>
	<path class="st2" d="M126.27,42.04C126.93,41.59 127.34,40.87 127.24,40.05C127.18,39.55 126.87,39.15 126.73,38.67C126.56,38.06 126.73,37.43 126.5,36.84C126.41,36.62 126.04,36.49 125.92,36.77C125.64,37.38 125.72,38.1 125.9,38.74C126.18,39.7 127.03,40.63 125.92,41.45C125.57,41.7 125.9,42.3 126.27,42.04"/>
	<path class="st2" d="M19.2,18.53C18.09,18.73 17.98,20.1 17.97,21.01C17.96,21.94 18.12,23.45 19.2,23.74C19.43,23.81 19.57,23.56 19.48,23.37C19.19,22.72 18.73,22.27 18.74,21.5C18.75,21.13 18.98,19.61 19.46,19.47C20.08,19.3 19.82,18.42 19.2,18.53"/>
	<path class="st2" d="M51.37,38.15C52.83,41.03 54.48,43.84 56.5,46.36C58.19,48.48 60.24,47.81 62.68,48.36C62.96,48.43 63.15,48.1 62.96,47.88C62.45,47.34 62.13,47.23 61.38,47.15C60.86,47.09 60.35,47.16 59.83,47.14C58.32,47.07 57.6,46.36 56.71,45.19C54.95,42.86 53.36,40.38 51.88,37.86C51.69,37.53 51.2,37.82 51.37,38.15"/>
	<path class="st2" d="M73.18,46.7C74.69,45.8 76.13,44.79 77.49,43.66C78.67,42.68 80.17,41.58 80.77,40.13C80.92,39.79 80.46,39.52 80.18,39.67C78.92,40.39 77.98,41.75 76.89,42.71C75.58,43.87 74.16,44.91 72.68,45.84C72.14,46.18 72.63,47.03 73.18,46.7"/>
	<path class="st2" d="M103.62,30.6C103.83,31.34 104.12,32.05 104.51,32.72C104.79,33.2 105.23,34.11 105.83,34.19C106,34.22 106.19,34.13 106.18,33.93C106.15,33.34 105.54,32.91 105.23,32.43C104.82,31.8 104.51,31.13 104.27,30.42C104.14,30.01 103.5,30.18 103.62,30.6"/>
	<path class="st2" d="M105.83,30.53C106.02,31.16 106.26,31.77 106.54,32.37C106.8,32.9 107.08,33.61 107.64,33.86C107.94,34 108.38,33.85 108.35,33.45C108.31,32.88 107.92,32.46 107.65,31.97C107.33,31.42 107.07,30.84 106.86,30.24C106.63,29.61 105.63,29.86 105.83,30.53"/>
	<path class="st2" d="M34.53,22.56C34.45,23.61 34.6,24.72 35.06,25.68C35.43,26.44 36.06,27.5 37,27.54C37.16,27.54 37.28,27.37 37.23,27.23C37.03,26.49 36.29,26 35.89,25.36C35.35,24.49 35.06,23.59 35.04,22.56C35.03,22.23 34.55,22.24 34.53,22.56"/>
	<path class="st2" d="M37.15,24.42C37.27,25.26 38.03,27.18 39.14,26.9C39.38,26.84 39.47,26.6 39.44,26.37C39.37,25.94 38.9,25.74 38.63,25.43C38.31,25.08 38.11,24.65 38,24.19C37.86,23.63 37.08,23.88 37.15,24.42"/>
	<path class="st3" d="M68.53,26.48C69.51,27.09 70.49,27.32 71.65,27.21C73.47,27.05 74.91,25.74 75.96,24.24C78.87,20.07 80.68,15.55 80.67,10.46C80.67,9.21 80.56,7.55 80.04,6.41C79.07,4.27 77.81,3.07 75.6,2.25C69.89,0.12 61.75,2.56 61.02,9.35C60.33,15.83 62.87,22.95 68.53,26.48"/>
	<path class="st4" d="M81.15,11.31C81.63,4.99 80.18,2.69 76.09,0.89C74.29,0.09 72.27,-0.02 70.3,0C67.04,0.05 64.24,0.57 62.06,3C61.13,4.02 59.46,6.95 59.8,10.31C59.8,10.31 64.08,10.05 65.24,10.18C66.83,10.37 81.07,10.83 81.15,11.31"/>
	<path class="st4" d="M62.87,16.85C62.91,16.99 62.94,17.14 62.92,17.29C62.86,17.58 62.57,17.78 62.27,17.8C61.98,17.82 61.7,17.69 61.46,17.51C60.57,16.85 60.27,15.67 60.1,14.58C59.89,13.29 59.76,11.99 59.71,10.69C59.68,9.79 59.69,8.85 60.14,8.07C60.59,7.3 61.89,6.57 62.67,7.34C63.32,7.98 62.97,9.54 62.85,10.36C62.52,12.57 62.37,14.63 62.87,16.85"/>
	<path class="st5" d="M62.68,10.03L59.7,10.03C58.9,11.7 59.8,13.34 59.8,13.34C59.8,13.34 61.15,14.01 62.68,14.66C62.68,14.66 61.87,11.41 62.68,10.03"/>
	<path class="st5" d="M64.44,17.28C66.42,18.19 68.03,17.88 70.01,16.95C71.26,16.37 71.96,15.14 73.12,15.89C73.48,16.13 74.48,16.8 74.78,17.11C76.23,18.64 79.02,18.55 80.37,16.94C81.66,15.4 81.37,13.31 81.15,11.31C78.68,10.21 67.08,9.49 62.68,10.03C61.8,12.65 62.15,16.22 64.44,17.28"/>
	<path class="st6" d="M72.41,15.11C72.72,15.11 73.06,15.2 73.41,15.44C73.64,15.58 74.8,16.34 75.18,16.74C75.76,17.36 76.64,17.69 77.6,17.66C78.55,17.63 79.41,17.24 79.96,16.59C81.03,15.31 80.85,13.56 80.65,11.7C77.91,10.76 67.64,10.07 63.09,10.53C62.4,12.95 62.84,15.94 64.66,16.79C66.52,17.64 68,17.3 69.78,16.46C70.12,16.3 70.43,16.08 70.73,15.86C71.21,15.52 71.76,15.11 72.41,15.11M77.48,18.74C76.28,18.74 75.16,18.29 74.39,17.49C74.19,17.27 73.43,16.74 72.83,16.34C72.39,16.05 72.14,16.17 71.36,16.74C71.04,16.97 70.67,17.24 70.24,17.44C68.23,18.38 66.44,18.8 64.21,17.77C61.66,16.59 61.17,12.82 62.17,9.86L62.28,9.54L62.61,9.5C66.98,8.96 78.74,9.65 81.37,10.82L81.66,10.94L81.72,11.52C81.93,13.45 82.17,15.64 80.78,17.29C80.04,18.17 78.89,18.7 77.63,18.74C77.58,18.74 77.53,18.74 77.48,18.74"/>
	<path class="st7" d="M72.21,16.46C72.3,16.99 73.32,18.72 72.58,19.01C72.29,19.13 71.95,18.8 71.63,18.89C71.37,18.96 71.25,19.16 71.22,19.42C71.21,19.6 71.34,19.82 71.5,19.9C72.24,20.28 73.33,20.24 73.65,19.34C74.05,18.25 73.27,17.23 72.9,16.27C72.73,15.84 72.13,16 72.21,16.46"/>
	<path class="st8" d="M73.44,21.38C71.41,21.28 70,21.15 68.09,20.79C68.13,21.31 68.41,23.65 70.5,23.77C72.8,23.91 73.6,21.85 73.44,21.38"/>
	<path class="st8" d="M65.66,12.3C66.1,12.88 66.53,13.46 66.96,14.04C67.3,14.49 67.62,15.13 68.13,15.39C68.26,15.46 68.41,15.34 68.37,15.2C68.24,14.64 67.7,14.17 67.35,13.74C66.89,13.18 66.44,12.62 65.98,12.06C65.84,11.88 65.53,12.12 65.66,12.3"/>
	<path class="st8" d="M67.56,12.02C67.89,12.5 68.22,12.99 68.55,13.47C68.81,13.86 69.04,14.38 69.46,14.61C69.63,14.69 69.78,14.55 69.75,14.38C69.68,13.91 69.23,13.5 68.96,13.12C68.63,12.67 68.3,12.23 67.97,11.78C67.79,11.54 67.39,11.76 67.56,12.02"/>
	<path class="st8" d="M69.94,12.02C70.25,12.38 70.54,12.78 70.9,13.09C71.02,13.19 71.24,13.06 71.14,12.9C70.87,12.5 70.5,12.15 70.17,11.79C70.03,11.62 69.8,11.86 69.94,12.02"/>
	<path class="st8" d="M73.57,2.28C74.14,2.3 74.68,2.46 75.16,2.78C75.56,3.04 75.83,3.58 76.25,3.77C76.36,3.82 76.46,3.76 76.47,3.64C76.52,3.09 75.84,2.59 75.43,2.33C74.87,1.97 74.23,1.8 73.57,1.79C73.25,1.79 73.25,2.27 73.57,2.28"/>
	<path class="st8" d="M77.28,4.87C77.51,5.26 77.68,5.73 78.06,5.99C78.21,6.09 78.35,5.92 78.33,5.78C78.27,5.36 77.92,4.98 77.68,4.63C77.52,4.39 77.13,4.6 77.28,4.87"/>
	<path class="st8" d="M78.97,7.48C78.95,7.46 78.93,7.45 78.92,7.44C78.87,7.41 78.79,7.41 78.75,7.44C78.73,7.45 78.71,7.46 78.69,7.48C78.48,7.63 78.54,8 78.83,8C79.12,8 79.18,7.63 78.97,7.48"/>
	<path class="st0" d="M34.23,96.31C33.87,97.05 33.85,97.91 33.83,98.73C33.81,99.49 33.81,100.29 34.2,100.94C34.98,102.23 36.81,102.26 38.31,102.12C44.12,101.61 49.92,101.09 55.73,100.58C57.48,100.42 59.49,100.11 60.38,98.6C61.32,97.02 60.48,94.94 59.24,93.57C58.01,92.2 56.4,91.17 55.42,89.6C55.13,89.14 54.89,88.62 54.44,88.29C51.01,85.77 46.86,87.21 44.42,89.74C41.81,92.44 35.82,92.99 34.23,96.31"/>
	<path class="st9" d="M43.77,50.23C42.54,49.59 38.44,49.96 37.85,50.54C35.09,53.31 32.47,56.81 32.79,60.71C33.05,63.85 35.17,66.49 36.28,69.44C38.54,75.42 36.59,82.49 39.37,88.25C39.69,88.92 40.1,89.58 40.72,89.98C41.39,90.4 41.57,91.6 42.28,91.26C47.3,88.89 51.63,92.31 55.41,90.65C55.97,90.41 56.64,90.6 57.18,90.32C58.33,89.72 58.66,88.22 58.57,86.93C58.12,80.6 51.69,75.19 52,68.85C55.94,69.61 58.93,71.74 62.56,73.47C64.05,74.18 65.5,74.97 67,75.67C71.46,77.76 76.29,79.05 81.2,79.46C84.2,79.71 96.77,80.17 101.2,74.65C106.71,67.78 99.05,60.2 92.16,56.81C91.38,56.43 72.09,61.05 65.31,57.45C58.47,53.81 50.6,53.8 43.77,50.23"/>
	<path class="st4" d="M74.38,52.38C73.93,55.54 75.47,58.59 76.85,61.47C78.76,65.48 80.43,69.62 81.65,73.9C83.16,79.18 84.16,84.98 88.02,88.89C90.7,88.09 93.38,87.29 96.06,86.49C98.92,85.63 102.2,84.38 103.06,81.51C103.97,78.48 101.64,75.56 100.11,72.79C99.07,70.93 98.36,68.91 97.65,66.9C96.75,64.33 95.84,61.75 94.94,59.18C93.86,56.13 92.75,53.01 90.73,50.49C86.88,45.69 75.55,44.15 74.38,52.38"/>
	<path class="st0" d="M92.24,78.88C94.06,78.29 96.03,77.69 97.87,78.22C99.96,78.82 101.51,81.05 101.14,83.19C100.74,85.5 98.55,86.98 96.56,88.2C94.68,89.34 92.77,90.5 90.65,91.11C86.9,92.19 79.44,93.11 80.89,87.09C82.1,82.1 87.99,80.25 92.24,78.88"/>
	<path class="st4" d="M46.31,56.66C47.31,57.59 48.01,58.75 48.51,60.02C48.9,61.02 49.08,62.11 49.55,63.06C49.67,63.32 50.12,63.21 50.1,62.92C49.88,60.54 48.51,57.8 46.7,56.27C46.43,56.04 46.05,56.41 46.31,56.66"/>
	<path class="st4" d="M52.51,57.66C52.92,58.49 53.27,59.33 53.56,60.21C53.78,60.91 53.84,61.72 54.24,62.33C54.34,62.48 54.63,62.49 54.66,62.28C54.79,61.48 54.41,60.62 54.15,59.87C53.84,59.01 53.47,58.17 53.04,57.35C52.86,57 52.34,57.31 52.51,57.66"/>
	<path class="st4" d="M61.15,58.43C64.06,60.04 65.57,62.46 66.92,65.39C67.76,67.21 68.56,69.29 70.21,70.53C70.41,70.67 70.67,70.39 70.54,70.2C69.04,67.88 67.83,65.57 66.51,63.15C65.28,60.91 63.65,59.23 61.38,58.03C61.12,57.89 60.89,58.29 61.15,58.43"/>
	<path class="st4" d="M72.04,64.73C72.61,67 73.82,69 74.92,71.04C75.82,72.73 76.63,74.4 78.2,75.56C78.64,75.89 79.06,75.15 78.63,74.83C77,73.6 76.17,71.64 75.22,69.9C74.26,68.17 73.19,66.47 72.55,64.6C72.44,64.28 71.96,64.41 72.04,64.73"/>
	<path class="st4" d="M51.6,66.95C51.55,66.35 51.43,65.56 50.93,65.17C50.75,65.03 50.51,65.15 50.56,65.38C50.66,65.93 50.97,66.38 51.03,66.95C51.07,67.31 51.63,67.32 51.6,66.95"/>
	<path class="st9" d="M77.39,55.63C78.37,58.97 79.64,62.18 81.14,65.31C82.13,67.36 83.17,69.84 85.54,70.5C85.85,70.58 86.04,70.14 85.76,69.98C83.3,68.57 82.29,66.08 81.15,63.61C79.93,60.96 78.86,58.24 77.83,55.51C77.72,55.24 77.3,55.35 77.39,55.63"/>
	<path class="st9" d="M92.2,74.8C92.72,74.33 94.44,74.58 95.08,74.58C95.89,74.58 96.73,74.68 97.53,74.52C97.82,74.47 97.8,74.02 97.53,73.95C96.35,73.67 94.98,73.86 93.79,73.94C93.09,73.98 92.26,73.9 91.81,74.51C91.64,74.74 92,74.98 92.2,74.8"/>
	<path class="st9" d="M94.08,70.07C94.52,70.1 94.96,70.13 95.39,70.16C95.77,70.19 96.04,70.27 96.31,69.97C96.39,69.88 96.43,69.72 96.35,69.61C96.12,69.27 95.89,69.29 95.49,69.27C95.02,69.23 94.55,69.2 94.08,69.16C93.5,69.12 93.5,70.02 94.08,70.07"/>
	<path class="st9" d="M91.81,64.9C92.36,65.06 92.91,65.22 93.46,65.37C93.89,65.5 94.34,65.76 94.75,65.48C94.88,65.39 94.92,65.24 94.85,65.09C94.64,64.65 94.12,64.65 93.68,64.55C93.13,64.41 92.57,64.28 92.02,64.14C91.53,64.03 91.33,64.76 91.81,64.9"/>
	<path class="st4" d="M41.76,89.12C43.41,87.66 45.52,88.63 47.35,88.96C47.59,89.01 47.7,88.73 47.51,88.59C45.98,87.45 42.91,87.51 41.58,88.94C41.46,89.06 41.64,89.23 41.76,89.12"/>
	<path class="st4" d="M37.68,67.25C38.51,68.28 39.3,69.04 39.64,70.4C39.95,71.68 39.61,73.07 40.03,74.3C40.1,74.51 40.36,74.49 40.44,74.3C41.25,72.28 40.33,67.61 37.83,67C37.67,66.96 37.59,67.14 37.68,67.25"/>
	<path class="st4" d="M41.31,79.47C41.47,79.95 41.57,80.4 41.89,80.79C42.07,81 42.37,80.81 42.39,80.58C42.43,80.12 42.25,79.69 42.12,79.25C41.96,78.74 41.15,78.96 41.31,79.47"/>
	<path class="st10" d="M13.02,107.4C11.92,106.76 114.27,78.76 130.09,70.41C145.91,62.06 153.67,70.22 156.55,73.7C159.43,77.17 160.58,84.09 150.51,89.4C140.44,94.71 37.75,114.41 37.75,114.41C37.75,114.41 29.41,116.84 13.02,107.4"/>
	<path class="st11" d="M142.05,70.22C143.82,71.83 145.54,73.48 147.19,75.2C148.82,76.9 150.25,78.92 152.01,80.48C152.2,80.64 152.5,80.44 152.36,80.21C151.22,78.28 149.45,76.63 147.9,75.02C146.16,73.21 144.33,71.49 142.42,69.85C142.17,69.63 141.8,69.99 142.05,70.22"/>
	<path class="st11" d="M140.02,74.16C143.36,77.43 146.23,81.05 149.37,84.5C149.65,84.82 150.21,84.4 149.96,84.04C147.31,80.25 143.78,76.91 140.37,73.82C140.13,73.61 139.79,73.94 140.02,74.16"/>
	<path class="st11" d="M140.54,82.8C141.29,83.47 142.01,84.17 142.68,84.92C143.24,85.54 143.83,86.62 144.6,86.96C144.87,87.08 145.14,86.88 145.09,86.58C144.94,85.75 143.98,84.98 143.4,84.4C142.67,83.65 141.88,82.95 141.06,82.29C140.7,82 140.19,82.48 140.54,82.8"/>
	<path class="st11" d="M138.08,85.55C138.58,86 139.08,86.45 139.58,86.9C139.97,87.26 140.41,87.87 140.97,87.85C141.14,87.85 141.34,87.7 141.31,87.52C141.23,86.92 140.64,86.64 140.2,86.28C139.67,85.86 139.14,85.43 138.61,85.01C138.24,84.71 137.71,85.21 138.08,85.55"/>
	<path class="st11" d="M25.41,108.44C26.67,109.09 27.94,109.72 29.23,110.32C30.35,110.84 31.52,111.52 32.74,111.74C32.99,111.78 33.13,111.48 32.91,111.33C31.84,110.59 30.5,110.2 29.3,109.67C28.09,109.12 26.88,108.55 25.69,107.97C25.38,107.81 25.1,108.28 25.41,108.44"/>
	<path class="st11" d="M34.23,109.41C34.74,109.79 35.28,110.11 35.87,110.37C36.37,110.58 36.96,110.88 37.5,110.7C37.72,110.63 37.82,110.34 37.64,110.16C37.25,109.8 36.69,109.75 36.21,109.55C35.66,109.33 35.14,109.02 34.66,108.67C34.21,108.35 33.8,109.08 34.23,109.41"/>
	<path class="st11" d="M38.63,108.95C39.02,109.11 39.41,109.26 39.8,109.42C40.17,109.57 40.5,109.75 40.9,109.75C41.22,109.75 41.42,109.32 41.17,109.1C40.87,108.82 40.52,108.73 40.14,108.59C39.71,108.43 39.29,108.27 38.86,108.11C38.34,107.91 38.12,108.74 38.63,108.95"/>
</svg>