<svg xmlns="http://www.w3.org/2000/svg" width="114.9" height="159.21" viewBox="0 0 114.9 159.21">
	<style type="text/css">
		.st2{fill:#ff690f;}
		.st1{fill:#203f43;}
		.st4{fill:#1591bc;}
		.st3{fill:#0983b6;}
		.st6{fill:#e24000;}
		.st5{fill:#f25508;}
		.st8{fill:#92a6b5;}
		.st7{fill:#a7ca16;}
		.st9{fill:#d3e0eb;}
		.st0{fill:#e84d00;}
	</style>
	<path class="st0" d="M76.26,113.63C76.26,113.63 100.56,109.68 113.81,119.37L113.81,124.36C113.81,124.36 84.09,108.06 65.9,119.81C65.9,119.81 66.49,115.03 76.26,113.63"/>
	<path class="st1" d="M105.16,113.56C105.04,113.55 104.92,113.56 104.79,113.59L84.59,118.57C84.51,118.59 84.43,118.62 84.35,118.65C84.2,118.68 84.05,118.7 83.89,118.74C79.85,119.74 76.54,123.86 76.54,127.9L76.54,131.69C76.54,135.7 80.31,139.15 84.7,138.75C87.47,138.51 88.84,135.15 90.16,132.81C90.49,132.21 90.65,131.56 90.65,130.95C90.65,129.45 91.55,127.81 92.98,127C95.33,125.67 97.52,126.89 97.52,129.14L97.52,129.23C97.52,129.83 97.67,130.4 98,130.84C99.31,132.55 101.7,132.87 104.42,132.17C108.43,131.14 111.64,127.05 111.64,123.04L113.42,119.87C113.42,116.12 108.79,113.09 105.16,113.56"/>
	<path class="st2" d="M106.98,114.9C106.86,114.89 106.74,114.9 106.61,114.93L86.41,119.91C86.33,119.93 86.25,119.96 86.17,119.99C86.02,120.02 85.86,120.05 85.71,120.08C81.67,121.08 78.36,125.2 78.36,129.24L78.36,133.03C78.36,137.04 81.57,139.54 85.57,138.6C88.28,137.97 90.66,136.49 91.97,134.15C92.31,133.55 92.47,132.9 92.47,132.29L92.47,132.29C92.47,130.79 93.37,129.15 94.8,128.34C97.15,127.01 99.33,128.23 99.33,130.48L99.33,130.57C99.33,131.17 99.49,131.74 99.82,132.18C101.12,133.89 103.52,134.21 106.24,133.51C110.24,132.48 113.46,128.39 113.46,124.38L113.46,120.59C113.46,116.84 110.61,114.43 106.98,114.9"/>
	<path class="st3" d="M106.22,131.66C109.19,130.89 111.6,127.84 111.6,124.84L111.6,121.05C111.6,118.27 109.52,116.44 106.76,116.8C106.68,116.81 106.6,116.81 106.52,116.81L86.47,121.75C86.37,121.79 86.27,121.83 86.16,121.85C86.13,121.86 86.09,121.87 86.05,121.87L85.94,121.89C85.86,121.91 85.79,121.92 85.71,121.94C82.68,122.69 80.22,125.76 80.22,128.78L80.22,132.58C80.22,135.57 82.63,137.44 85.59,136.74L85.71,136.71C86.97,136.4 89.27,135.57 90.42,133.52C90.54,133.3 90.61,133.02 90.61,132.74C90.61,130.4 92.1,127.92 94.23,126.71C94.78,126.4 95.34,126.17 95.9,126.04C98.82,125.32 101.19,127.11 101.19,130.02L101.19,130.11C101.19,130.39 101.26,130.63 101.38,130.79C102.53,132.3 104.84,132 106.11,131.69Z"/>
	<path class="st4" d="M86.47,121.75C86.37,121.79 86.27,121.83 86.16,121.85C86.13,121.86 86.09,121.87 86.06,121.87L85.94,121.89C85.86,121.91 85.79,121.92 85.71,121.94C82.8,122.66 80.42,125.51 80.23,128.42C82.5,126.15 84.77,123.88 87.04,121.61Z"/>
	<path class="st4" d="M96.38,119.31L80.8,134.89C81.21,135.59 81.79,136.14 82.51,136.48C88.59,130.4 94.68,124.31 100.76,118.23Z"/>
	<path class="st4" d="M108.99,117.04L99.47,126.56C100.46,127.22 101.1,128.34 101.17,129.74C104.57,126.35 107.97,122.95 111.37,119.55C110.98,118.36 110.12,117.47 108.99,117.04"/>
	<path class="st4" d="M111.29,126.67L106.35,131.61C108.65,130.96 110.58,128.95 111.29,126.67"/>
	<path class="st1" d="M80.71,113.13C80.71,113.13 71.2,113.81 66.44,115.98C52.71,122.23 60.02,131.06 67.39,132.22C73.69,133.21 76.26,132.22 76.26,132.22L76.26,126.82C76.26,126.82 67.57,128.28 65.66,124.43C63.76,120.57 68.32,115.09 80.71,113.13"/>
	<path class="st5" d="M77.31,134.78L77.31,134.78C76.11,134.78 75.13,133.8 75.13,132.6L75.13,127.64C75.13,126.44 76.11,125.46 77.31,125.46C78.51,125.46 79.49,126.44 79.49,127.64L79.49,132.6C79.49,133.8 78.51,134.78 77.31,134.78"/>
	<path class="st5" d="M113.87,126.29L113.74,126.29C113.18,126.29 112.72,125.82 112.72,125.26L112.72,119.06C112.72,118.49 113.18,118.03 113.74,118.03L113.87,118.03C114.44,118.03 114.9,118.49 114.9,119.06L114.9,125.26C114.9,125.82 114.44,126.29 113.87,126.29"/>
	<path class="st6" d="M52.06,0.52C52.06,0.52 70.52,3.59 71.82,23.26C73.12,42.92 52.89,67 50.74,99.61C48.58,132.22 44.56,164.49 18.45,158.48C-7.64,152.48 2.83,121.69 15.15,91.42C27.47,61.15 19.81,30.65 29.57,13.53C39.34,-3.57 52.06,0.52 52.06,0.52"/>
	<path class="st2" d="M52.38,0.61C52.38,0.61 68.24,3.01 69.54,22.67C70.84,42.34 50.61,66.42 48.46,99.03C46.31,131.64 42.28,163.91 16.18,157.9C-9.92,151.89 0.56,121.11 12.88,90.84C25.2,60.57 17.53,30.07 27.3,12.95C37.06,-4.16 52.38,0.61 52.38,0.61"/>
	<path class="st7" d="M44.59,77.43L44.59,77.43C42.35,78.83 39.38,78.14 37.98,75.91L28.04,60.02C26.64,57.79 27.33,54.81 29.56,53.41C31.8,52.02 34.77,52.7 36.17,54.93L46.11,70.82C47.51,73.05 46.82,76.03 44.59,77.43"/>
	<path class="st0" d="M44.59,77.43L44.59,77.43C44.3,77.61 43.91,77.52 43.73,77.23L32.68,59.58C32.5,59.29 32.59,58.9 32.88,58.72C33.17,58.54 33.56,58.63 33.74,58.92L44.79,76.57C44.97,76.86 44.88,77.24 44.59,77.43"/>
	<path class="st8" d="M31.87,72.57L31.87,72.57C31.54,72.65 31.2,72.45 31.12,72.12L28.73,62.8C28.65,62.47 28.85,62.13 29.18,62.04C29.51,61.96 29.85,62.16 29.93,62.49L32.31,71.81C32.4,72.14 32.2,72.48 31.87,72.57"/>
	<path class="st8" d="M45.78,63.86L45.78,63.86C46,63.6 45.97,63.21 45.71,62.99L38.36,56.77C38.1,56.55 37.71,56.58 37.49,56.84C37.27,57.1 37.3,57.49 37.56,57.71L44.91,63.93C45.17,64.15 45.56,64.12 45.78,63.86"/>
	<path class="st9" d="M44.81,64.47C45.15,65 45.85,65.16 46.38,64.83C46.92,64.49 47.08,63.79 46.74,63.26C46.41,62.72 45.71,62.56 45.17,62.9C44.64,63.23 44.48,63.93 44.81,64.47"/>
	<path class="st8" d="M46,67.85L46,67.85C45.78,67.89 45.64,68.1 45.68,68.31L46.8,74.43C46.84,74.64 47.05,74.79 47.27,74.75C47.48,74.71 47.63,74.5 47.59,74.28L46.47,68.17C46.43,67.95 46.22,67.81 46,67.85"/>
	<path class="st9" d="M46.73,67.94C46.78,67.54 46.5,67.17 46.09,67.12C45.69,67.07 45.32,67.35 45.27,67.75C45.22,68.16 45.5,68.53 45.91,68.58C46.31,68.63 46.68,68.34 46.73,67.94"/>
	<path class="st8" d="M35.36,74.51L35.36,74.51C35.49,74.33 35.74,74.29 35.92,74.42L40.92,78.11C41.1,78.24 41.14,78.49 41.01,78.66C40.88,78.84 40.63,78.88 40.45,78.75L35.44,75.07C35.27,74.94 35.23,74.69 35.36,74.51"/>
	<path class="st9" d="M35.12,75.21C34.74,75.08 34.53,74.66 34.66,74.27C34.79,73.89 35.21,73.68 35.59,73.81C35.98,73.94 36.18,74.36 36.05,74.74C35.92,75.13 35.51,75.34 35.12,75.21"/>
	<path class="st9" d="M30.17,65C30.33,64.9 30.42,64.73 30.42,64.54C30.47,62.52 31.49,60.56 33.32,59.42C35.15,58.27 37.36,58.21 39.19,59.05C39.36,59.13 39.56,59.12 39.72,59.02C39.98,58.86 40.06,58.52 39.9,58.26L37.35,54.19C35.64,51.46 32.13,50.33 29.25,51.76C25.94,53.41 24.84,57.53 26.75,60.59L29.4,64.83C29.56,65.09 29.91,65.16 30.17,65"/>
	<path class="st9" d="M42.97,75.93C41.45,76.7 39.79,76.77 38.36,76.26C38.03,76.15 37.75,76.52 37.93,76.82L38.23,77.29C39.68,79.6 42.92,80.62 45.33,79.33C48.07,77.88 48.97,74.4 47.35,71.81L46.99,71.23C46.8,70.93 46.35,71.04 46.3,71.39C46.05,73.21 44.87,74.97 42.97,75.93"/>
	<path class="st0" d="M38.06,63.63C38.59,64.47 38.33,65.57 37.5,66.09C36.66,66.62 35.56,66.36 35.03,65.52C34.51,64.69 34.76,63.59 35.6,63.06C36.44,62.54 37.54,62.79 38.06,63.63"/>
	<path class="st0" d="M41.52,70.14C41.89,70.73 41.71,71.51 41.12,71.88C40.53,72.25 39.75,72.07 39.38,71.48C39.01,70.89 39.19,70.11 39.78,69.74C40.37,69.37 41.15,69.55 41.52,70.14"/>
	<path class="st9" d="M32.84,71.96C33.17,72.5 33.01,73.2 32.47,73.53C31.94,73.87 31.24,73.7 30.9,73.17C30.57,72.64 30.73,71.93 31.26,71.6C31.8,71.27 32.5,71.43 32.84,71.96"/>
	<path class="st7" d="M37.04,110.22L37.04,110.22C34.81,111.62 31.84,110.93 30.44,108.7L20.5,92.81C19.1,90.58 19.78,87.61 22.02,86.21C24.25,84.81 27.23,85.49 28.63,87.73L38.57,103.61C39.96,105.85 39.28,108.82 37.04,110.22"/>
	<path class="st0" d="M37.04,110.22L37.04,110.22C36.75,110.4 36.37,110.31 36.18,110.02L25.14,92.37C24.96,92.08 25.05,91.69 25.34,91.51C25.63,91.33 26.02,91.42 26.2,91.71L37.24,109.36C37.42,109.65 37.34,110.04 37.04,110.22"/>
	<path class="st8" d="M24.32,105.36L24.32,105.36C23.99,105.44 23.66,105.24 23.57,104.91L21.19,95.59C21.1,95.26 21.3,94.92 21.63,94.84C21.96,94.75 22.3,94.95 22.39,95.28L24.77,104.6C24.85,104.93 24.65,105.27 24.32,105.36"/>
	<path class="st8" d="M38.23,96.65L38.23,96.65C38.45,96.39 38.42,96 38.16,95.78L30.82,89.56C30.56,89.34 30.17,89.37 29.95,89.63C29.73,89.89 29.76,90.29 30.02,90.51L37.36,96.73C37.62,96.95 38.01,96.91 38.23,96.65"/>
	<path class="st9" d="M37.27,97.26C37.6,97.79 38.3,97.95 38.84,97.62C39.37,97.29 39.53,96.58 39.2,96.05C38.87,95.52 38.16,95.35 37.63,95.69C37.1,96.02 36.93,96.72 37.27,97.26"/>
	<path class="st8" d="M38.46,100.64L38.46,100.64C38.24,100.68 38.09,100.89 38.13,101.1L39.26,107.22C39.3,107.44 39.51,107.58 39.72,107.54C39.94,107.5 40.08,107.29 40.04,107.08L38.92,100.96C38.88,100.74 38.67,100.6 38.46,100.64"/>
	<path class="st9" d="M39.19,100.73C39.24,100.33 38.95,99.96 38.55,99.91C38.15,99.86 37.78,100.14 37.73,100.55C37.67,100.95 37.96,101.32 38.36,101.37C38.77,101.42 39.13,101.14 39.19,100.73"/>
	<path class="st8" d="M27.81,107.3L27.81,107.3C27.94,107.12 28.19,107.09 28.37,107.22L33.38,110.9C33.56,111.03 33.6,111.28 33.46,111.46C33.33,111.63 33.08,111.67 32.91,111.54L27.9,107.86C27.72,107.73 27.68,107.48 27.81,107.3"/>
	<path class="st9" d="M27.58,108C27.19,107.87 26.99,107.45 27.11,107.07C27.24,106.68 27.66,106.47 28.05,106.6C28.43,106.73 28.64,107.15 28.51,107.54C28.38,107.92 27.96,108.13 27.58,108"/>
	<path class="st9" d="M22.62,97.79C22.78,97.69 22.87,97.52 22.88,97.33C22.92,95.31 23.95,93.35 25.77,92.21C27.6,91.07 29.81,91 31.64,91.84C31.82,91.92 32.01,91.92 32.17,91.81L32.17,91.81C32.43,91.65 32.51,91.31 32.35,91.05L29.81,86.98C28.1,84.25 24.59,83.12 21.71,84.55C18.4,86.2 17.29,90.33 19.21,93.39L21.85,97.62C22.02,97.88 22.36,97.96 22.62,97.79"/>
	<path class="st9" d="M35.42,108.72C33.91,109.49 32.25,109.56 30.82,109.06C30.49,108.94 30.2,109.32 30.39,109.61L30.68,110.08C32.13,112.4 35.38,113.41 37.79,112.12C40.53,110.67 41.42,107.19 39.81,104.6L39.44,104.02C39.25,103.72 38.8,103.83 38.75,104.18C38.5,106 37.33,107.76 35.42,108.72"/>
	<path class="st0" d="M30.52,96.42C31.04,97.26 30.79,98.36 29.95,98.88C29.11,99.41 28.01,99.15 27.49,98.32C26.96,97.48 27.22,96.38 28.06,95.85C28.89,95.33 29.99,95.58 30.52,96.42"/>
	<path class="st0" d="M33.98,102.93C34.35,103.53 34.17,104.3 33.58,104.68C32.98,105.05 32.2,104.87 31.83,104.27C31.46,103.68 31.64,102.9 32.23,102.53C32.83,102.16 33.61,102.34 33.98,102.93"/>
	<path class="st9" d="M25.29,104.75C25.62,105.29 25.46,105.99 24.93,106.32C24.4,106.66 23.69,106.5 23.36,105.96C23.02,105.43 23.19,104.73 23.72,104.39C24.25,104.06 24.96,104.22 25.29,104.75"/>
	<path class="st5" d="M62.2,51.36C63.73,47.62 65.17,44.02 66.36,40.55C60.12,37.51 53.43,34.35 46.44,31.17C38.61,27.61 31.05,24.32 24,21.37C23.05,24.98 22.47,28.93 22.04,33.15C28.12,36.11 34.62,39.17 41.4,42.25C48.63,45.54 55.62,48.6 62.2,51.36"/>
	<path class="st5" d="M5.39,110.61C4.12,114.39 3.01,118.09 2.13,121.65C8.97,125.02 16.41,128.54 24.22,132.09C30.47,134.93 36.56,137.61 42.35,140.07C43.53,136.54 44.48,132.64 45.25,128.48C40.16,126.03 34.8,123.53 29.26,121.01C20.89,117.2 12.84,113.71 5.39,110.61"/>
	<path class="st5" d="M0.25,132.03C-0.01,134.65 -0.07,137.15 0.11,139.49C6.12,142.58 13.12,145.96 20.66,149.39C25,151.36 29.21,153.2 33.2,154.9C35.18,153.32 36.89,151.3 38.36,148.89C33.9,146.7 29.07,144.4 23.98,142.09C15.31,138.15 7.16,134.71 0.25,132.03"/>
	<path class="st5" d="M32.39,6.25C30.79,7.81 29.24,9.75 27.8,12.12C33.42,14.98 39.83,18.06 46.68,21.17C54.77,24.85 62.41,28.09 69.02,30.69C69.46,28.14 69.67,25.67 69.56,23.27C63.77,20.32 57.12,17.12 49.99,13.87C43.77,11.04 37.81,8.47 32.39,6.25"/>
</svg>