<svg xmlns="http://www.w3.org/2000/svg" width="156.25" height="158.92" viewBox="0 0 156.25 158.92">
	<style type="text/css">
		.st2{fill:#214044;}
		.st1{fill:#0a84b7;}
		.st4{fill:#b58c43;}
		.st3{fill:#ff690f;}
		.st6{fill:#a8cb17;}
		.st5{fill:#fefff1;}
		.st8{fill:#0d6d8e;}
		.st7{fill:#e84d00;}
		.st9{fill:#163133;}
		.st0{fill:#f1d291;}
	</style>
	<path class="st0" d="M59.56,41.91C62.21,40.69 63.65,37.75 64.27,34.9C64.71,32.88 64.84,30.7 64.01,28.81C63.4,27.45 62.34,26.33 61.14,25.44C57.96,23.06 53.51,22.2 49.88,23.83C39.06,28.68 50.87,45.91 59.56,41.91"/>
	<path class="st1" d="M51.93,30.48C53.76,29.83 55.6,29.19 57.43,28.54C57.99,28.34 58.58,28.14 59.18,28.22C60.24,28.36 61.12,29.21 61.64,30.15C64.27,34.9 64.84,32.16 64.88,32.03C65.95,27.82 63.61,22.52 60.56,20.59C56.79,18.2 51.9,18.12 47.2,21.2C45.17,22.54 43.11,25.73 43.18,29.26C43.28,35.16 49.45,31.35 51.93,30.48"/>
	<path class="st2" d="M63.31,23.62C62.26,25.42 60.04,26.08 58.12,26.88C57.4,27.19 56.58,27.7 56.6,28.48C56.6,28.73 56.7,28.97 56.79,29.2C57.17,30.14 57.54,31.08 57.92,32.03L59.8,31.41C61.02,30.28 64.42,27.77 64.5,26.72C64.62,25.15 63.98,24.06 63.31,23.62"/>
	<path class="st2" d="M47.34,36.54C48.14,36.92 49.08,37.08 49.91,36.79C50.74,36.5 51.42,35.67 51.35,34.79C52.91,35.14 54.56,35.12 56.12,34.73C57.63,34.36 59.2,33.48 59.61,31.97C60.07,30.3 58.94,28.64 57.82,27.32C57.69,27.17 57.56,27.02 57.38,26.96C57.13,26.9 56.88,27.02 56.66,27.14C53.02,29.07 49.13,30.51 45.11,31.42C44.64,31.52 44.16,31.63 43.8,31.93C42.64,32.91 46.35,36.08 47.34,36.54"/>
	<path class="st3" d="M57.23,27.44C57.17,27.44 57.06,27.48 56.89,27.57C53.21,29.53 49.28,30.99 45.21,31.9C44.78,32 44.38,32.09 44.11,32.31C44.09,32.33 44.06,32.36 44.07,32.48C44.21,33.52 46.73,35.71 47.55,36.1C48.01,36.31 48.89,36.63 49.75,36.33C50.42,36.09 50.9,35.43 50.86,34.83L50.8,34.17L51.45,34.31C52.95,34.64 54.52,34.62 56,34.26C57.66,33.84 58.83,32.94 59.14,31.84C59.54,30.37 58.44,28.82 57.44,27.64C57.4,27.59 57.29,27.45 57.24,27.44C57.24,27.44 57.23,27.44 57.23,27.44M49,37.43C48.39,37.43 47.76,37.29 47.13,36.99C46.24,36.57 43.29,34.15 43.09,32.61C43.04,32.19 43.18,31.81 43.48,31.56C43.93,31.18 44.49,31.05 44.98,30.94C48.98,30.04 52.82,28.62 56.43,26.7C56.67,26.58 57.07,26.37 57.51,26.49C57.85,26.59 58.07,26.84 58.2,27C59.35,28.37 60.61,30.19 60.09,32.11C59.51,34.19 57.2,34.97 56.24,35.21C54.79,35.57 53.27,35.63 51.79,35.38C51.61,36.21 50.96,36.95 50.08,37.26C49.74,37.38 49.37,37.43 49,37.43"/>
	<path class="st4" d="M51.7,36C51.73,36.49 51.78,36.97 51.89,37.44C51.97,37.8 52.07,38.37 52.36,38.63C52.64,38.87 53.1,38.84 53.45,38.81C53.9,38.77 54.33,38.74 54.61,38.36C54.73,38.19 54.59,37.99 54.43,37.93C54.16,37.83 53.98,37.91 53.71,37.96C53.53,37.99 53.26,38.04 53.07,38.02C52.87,38 52.86,38.03 52.76,37.82C52.46,37.25 52.26,36.57 52.11,35.95C52.05,35.72 51.68,35.77 51.7,36"/>
	<path class="st5" d="M51.22,32.01C51.64,32.19 52.05,32.35 52.47,32.52C52.88,32.67 53.31,32.91 53.74,32.93C53.85,32.94 53.94,32.77 53.84,32.7C53.52,32.45 53.12,32.36 52.74,32.23C52.27,32.07 51.8,31.9 51.33,31.76C51.18,31.71 51.08,31.95 51.22,32.01"/>
	<path class="st5" d="M52.7,31.26C53.26,31.45 53.82,31.61 54.36,31.82C54.85,32 55.32,32.32 55.84,32.37C56.01,32.38 56.07,32.16 55.97,32.05C55.63,31.7 55.05,31.54 54.6,31.37C54.02,31.16 53.43,30.96 52.81,30.86C52.55,30.81 52.44,31.18 52.7,31.26"/>
	<path class="st5" d="M54.97,30.3C55.33,30.49 55.7,30.66 56.07,30.8C56.41,30.92 56.76,31.11 57.11,30.99C57.23,30.95 57.28,30.81 57.19,30.72C56.96,30.49 56.68,30.47 56.37,30.37C55.97,30.24 55.59,30.07 55.22,29.88C54.94,29.73 54.7,30.15 54.97,30.3"/>
	<path class="st5" d="M45.05,29.59C45.12,29.09 45.09,28.57 45.11,28.06C45.12,27.61 45.24,27.12 45.1,26.7C45.05,26.56 44.84,26.51 44.76,26.66C44.53,27.07 44.59,27.59 44.58,28.06C44.58,28.59 44.58,29.12 44.7,29.64C44.75,29.85 45.03,29.78 45.05,29.59"/>
	<path class="st5" d="M46.07,25.46C46.2,25.13 46.38,24.83 46.28,24.48C46.24,24.32 46.06,24.29 45.94,24.39C45.67,24.63 45.66,24.98 45.59,25.33C45.53,25.64 45.95,25.75 46.07,25.46"/>
	<path class="st5" d="M47.01,23.61C47.17,23.43 47.28,23.29 47.27,23.04C47.26,22.92 47.14,22.8 47.01,22.85C46.77,22.92 46.69,23.04 46.56,23.26C46.41,23.54 46.8,23.86 47.01,23.61"/>
	<path class="st2" d="M74.15,119.08C54.69,99.07 35.27,79.02 15.08,59.75C14.5,59.2 12.84,60.87 13.41,61.42C35.36,82.38 53.54,100.22 73.54,119.68C73.94,120.07 74.53,119.47 74.15,119.08"/>
	<path class="st6" d="M18.48,62.33C18,62.41 17.48,62.51 17.15,62.87C16.7,63.36 15.09,65.78 15.44,66.54C15.62,66.94 16.55,67.74 16.86,68.05C17.41,68.58 17.64,69.34 17.98,70.03C18.31,70.72 18.81,70.79 19.58,70.79C21.2,70.79 24.02,67.79 24.63,67.09C25.61,65.98 26.38,66.36 26.95,65C27.27,64.22 26.22,62.9 25.61,62.32C23.85,60.63 20.52,61.98 18.48,62.33"/>
	<path class="st3" d="M64.55,32.83C65.05,32.25 65.63,31.58 66.4,31.59C67.17,31.6 67.66,32.88 66.93,33.11C67.63,33.6 68.33,34.1 69.03,34.59C71.22,32.61 73.81,31.06 76.59,30.06C77.8,29.63 80.14,29.78 80.09,28.5C80.03,26.75 82.41,27.28 82.72,25.89C82.94,24.94 81.48,23.95 81.43,22.99C81.41,22.41 82.33,20.91 82.24,20.34C82,18.73 81.51,17.17 80.81,15.7C80.42,14.88 78.88,13.9 79.6,13.34C79.87,13.13 81.36,12.95 81.69,12.91C84.08,12.62 85.94,11.54 88.32,11.25C89.66,14.15 90.74,18.12 91.29,21.26C91.5,22.49 92.5,23.73 92.72,24.96C92.9,26.03 92.3,27.09 92.48,28.15C92.69,29.33 92.89,30.52 92.78,31.71C92.52,34.6 90.51,36.99 88.65,39.21C88.3,39.63 87.94,40.08 87.85,40.63C87.74,41.34 88.13,42.03 88.51,42.64C90.69,46.15 92.85,47.2 95.43,50.43C96.38,51.62 97.59,55.12 98.28,56.47C99.9,59.64 99.77,63.39 99.6,66.95C97.88,68.53 95.38,69.21 93.09,68.73C92.16,68.54 91.26,68.16 90.32,68C88.35,67.67 86.37,68.31 84.44,68.82C78.75,70.3 72.76,70.66 66.94,69.86C68,68.07 67.63,65.2 65.58,64.83C62.19,64.22 63.18,61.09 61.75,59.58C60,57.72 57.39,54.98 55.31,56.46C53.54,57.73 51.61,57.28 49.77,58.79C46.09,61.8 42.87,63.4 39.34,63.4C38.31,63.4 37.14,63.57 36.38,64.25C34.87,65.61 32.91,65.25 31.18,65.75C30.32,65.99 29.47,66.24 28.62,66.48C27.56,66.79 26.95,68.97 25.43,67.4C24.53,65.62 23.63,63.84 22.74,62.06C22.62,61.82 22.49,61.57 22.49,61.3C22.47,60.53 23.34,60.09 24.07,59.84C25.16,59.45 26.25,59.04 27.32,58.61C28.9,57.99 31.04,58.06 32.02,56.68C34.01,53.89 36.49,54.8 38.72,53.87C40.5,53.12 41.89,52.87 43.58,50.93C45.83,48.33 47.52,48.41 49.11,47.35C51.24,45.93 53.16,45.6 54.7,43.55C54.54,43.76 53.58,41.4 52.38,42.17C50.99,43.08 49.77,41.55 49.79,41.16C49.86,40.12 53.17,40 53.85,39.78C57.98,38.44 61.71,36.14 64.55,32.83"/>
	<path class="st2" d="M145.96,77.23C146.36,76.39 145.98,76.61 146.54,75.96C146.88,76.29 147.22,76.62 147.56,76.95C146.83,77.46 146.26,77.6 145.96,77.23M149.57,74.43C149.01,75.62 149.62,75.11 148.83,75.91C148.47,75.53 148.12,75.16 147.75,74.78C148.65,74.04 149.16,74.11 149.57,74.43M156.01,83.39C154.08,81.35 152.1,79.29 150.1,77.22C151.37,75.99 152.36,74.47 152.91,72.76C153.06,72.3 152.76,71.89 152.38,71.71C152.38,71.45 152.15,71.18 151.81,71.24C149.83,71.62 148.09,72.45 146.64,73.64C123.28,49.57 96.68,23.75 74.14,0.43C72.83,-0.92 70.71,1.19 72.07,2.51C95.39,25.03 121.3,51.5 145.37,74.83C144.24,76.08 143.37,77.56 142.79,79.23C142.54,79.93 143.26,80.39 143.85,80.3C145.68,80.04 147.42,79.32 148.9,78.24C151.01,80.27 153.09,82.26 155.16,84.24C155.85,84.9 156.67,84.08 156.01,83.39"/>
	<path class="st6" d="M78.92,12.8C79.8,13.56 80.83,14.24 81.99,14.3C83.14,14.36 84.41,13.6 84.55,12.45C85.19,13.03 86.33,12.72 86.78,11.98C87.22,11.23 87.09,10.25 86.66,9.49C86.24,8.74 85.56,8.16 84.9,7.6C84.14,6.95 83.39,6.31 82.63,5.66C80.03,3.45 78.66,4.49 77.02,6.77C74.62,10.13 76.09,10.36 78.92,12.8"/>
	<path class="st7" d="M55.9,39.77C55.59,40.79 55.94,41.17 56.86,41.63C57.27,41.84 58,41.83 58.41,41.94C60.6,42.52 61.86,43.71 62.06,46.01C62.19,47.45 61.96,48.59 62.91,49.82C63.93,51.16 65.73,51.58 67.02,52.59C67.28,52.79 67.76,52.53 67.53,52.2C66.82,51.21 65.93,50.91 64.92,50.25C62.21,48.49 63.53,46.75 62.8,44.44C62.51,43.52 61.86,42.73 61.11,42.17C60.36,41.61 56.58,40.67 56.66,39.87C56.71,39.42 56.02,39.36 55.9,39.77"/>
	<path class="st7" d="M67.37,53.77C68.72,55.57 66.65,57.42 68.74,59.01C69.83,59.84 70.96,60.15 71.76,61.39C72.47,62.48 72.62,63.79 73.19,64.94C73.28,65.13 73.59,65.04 73.58,64.83C73.53,62.91 72.55,60.7 70.98,59.54C70.54,59.21 70.04,59 69.58,58.72C68.32,57.93 68.44,56.87 68.33,55.57C68.26,54.74 68.24,54.18 67.68,53.53C67.54,53.36 67.24,53.59 67.37,53.77"/>
	<path class="st7" d="M54.16,41.61C54.48,41.28 54.84,41.23 55.22,41.02C55.41,40.92 55.37,40.62 55.16,40.57C54.61,40.43 54.05,40.86 53.74,41.29C53.56,41.53 53.95,41.82 54.16,41.61"/>
	<path class="st7" d="M59.02,39.45C60.47,38.89 61.94,38.02 63.27,37.21C64.29,36.59 65.15,35.6 65.41,34.41C65.45,34.25 65.23,34.08 65.11,34.23C64.75,34.67 64.54,35.18 64.21,35.64C63.75,36.27 63.17,36.65 62.51,37.03C61.31,37.71 60,38.31 58.89,39.14C58.75,39.24 58.83,39.52 59.02,39.45"/>
	<path class="st7" d="M62.11,40.83C63.26,40.88 64.31,40.46 65.18,39.71C66.09,38.93 67.09,37.64 67.41,36.47C67.45,36.32 67.25,36.19 67.14,36.31C66.43,37.09 66.08,38.14 65.36,38.94C64.51,39.89 63.41,40.53 62.11,40.51C61.9,40.51 61.91,40.82 62.11,40.83"/>
	<path class="st7" d="M56.58,43.34C57.08,43.4 57.69,43.57 58.16,43.34C58.31,43.27 58.27,43.08 58.16,43C57.74,42.7 57.07,42.78 56.58,42.75C56.19,42.73 56.2,43.31 56.58,43.34"/>
	<path class="st7" d="M75,33.69C74.54,35.24 74.52,36.63 76.08,37.42C76.9,37.83 77.77,38.16 78.67,38.34C79.34,38.47 79.92,38.51 80.57,38.78C81.03,38.96 81.42,39.17 81.91,39.3C82.23,39.39 82.47,38.89 82.14,38.74C81.1,38.29 80.22,37.89 79.11,37.72C78.27,37.59 77.35,37.36 76.61,36.93C75.25,36.13 75.28,35.13 75.5,33.83C75.55,33.51 75.09,33.37 75,33.69"/>
	<path class="st7" d="M82.62,36.69C83.92,37.47 87.72,39.32 88.88,37.51C88.98,37.34 88.81,37.1 88.62,37.17C86.64,37.83 84.65,37.27 82.83,36.31C82.59,36.18 82.38,36.54 82.62,36.69"/>
	<path class="st7" d="M88.19,34.94C88.61,35.01 89.02,35.08 89.43,35.15C89.77,35.21 89.9,35.25 90.16,35.03C90.23,34.98 90.25,34.83 90.2,34.76C90,34.49 89.86,34.49 89.53,34.45C89.11,34.41 88.69,34.37 88.28,34.33C87.93,34.3 87.85,34.89 88.19,34.94"/>
	<path class="st7" d="M83.41,27.45C83.85,29.13 85.59,30.33 87.06,31.1C87.98,31.59 89.86,32.37 90.51,31.11C90.59,30.95 90.49,30.67 90.27,30.7C89.02,30.87 88.25,30.83 87.09,30.2C85.9,29.55 84.41,28.65 83.94,27.3C83.83,26.97 83.33,27.1 83.41,27.45"/>
	<path class="st7" d="M25.08,61.95C25.34,62.54 25.62,63.12 25.89,63.69C26.14,64.2 26.32,64.83 26.75,65.2C26.92,65.34 27.24,65.26 27.22,65.01C27.18,64.44 26.82,63.95 26.56,63.45C26.25,62.85 25.94,62.24 25.6,61.65C25.4,61.31 24.94,61.61 25.08,61.95"/>
	<path class="st7" d="M38.81,56.33C38.42,57.21 38.44,58.19 39.03,58.97C39.43,59.49 40.58,60.35 41.18,59.68C41.24,59.62 41.27,59.51 41.21,59.44C40.89,58.99 40.27,59.01 39.85,58.66C39.22,58.14 39.04,57.29 39.27,56.53C39.35,56.26 38.93,56.07 38.81,56.33"/>
	<path class="st7" d="M40.9,56.67C41.08,57.2 41.34,57.69 41.7,58.11C41.98,58.44 42.45,58.98 42.93,58.84C43.06,58.8 43.13,58.67 43.1,58.55C43.01,58.16 42.55,57.99 42.29,57.73C41.93,57.39 41.67,56.97 41.49,56.51C41.35,56.15 40.78,56.29 40.9,56.67"/>
	<path class="st7" d="M54.07,48.26C53.81,49.35 53.74,50.48 54.44,51.43C54.85,51.99 55.93,53 56.68,52.77C56.8,52.73 56.89,52.6 56.85,52.47C56.65,51.83 55.77,51.64 55.3,51.2C54.48,50.43 54.53,49.37 54.59,48.33C54.6,48.04 54.14,47.97 54.07,48.26"/>
	<path class="st7" d="M77.68,62.62C81.14,60.31 84.77,61.21 88.6,61.64C90.38,61.84 92.11,61.81 93.52,60.61C93.8,60.37 93.44,59.92 93.13,60.1C90.35,61.74 87.37,60.62 84.36,60.51C81.88,60.42 79.55,60.86 77.49,62.29C77.3,62.43 77.48,62.75 77.68,62.62"/>
	<path class="st7" d="M76.45,61.18C77.42,60.11 78.42,59.02 79.62,58.19C80.93,57.3 82.21,57.2 83.7,56.91C83.97,56.86 83.93,56.48 83.7,56.41C80.66,55.4 77.77,58.86 76.17,60.9C76.02,61.1 76.27,61.37 76.45,61.18"/>
	<path class="st7" d="M75.45,57.71C76.19,56.98 76.97,56.29 77.8,55.65C78.48,55.13 79.36,54.72 79.87,54.02C80.01,53.82 79.77,53.59 79.57,53.64C78.73,53.82 77.98,54.57 77.32,55.11C76.5,55.77 75.73,56.49 74.99,57.25C74.7,57.55 75.15,58 75.45,57.71"/>
	<path class="st7" d="M79.93,40.82C81.84,41.78 84.36,42.22 86.39,41.33C86.79,41.15 86.47,40.62 86.11,40.67C83.97,40.97 82.19,41.18 80.08,40.46C79.87,40.38 79.73,40.72 79.93,40.82"/>
	<path class="st7" d="M84.77,24.23C85.59,24.67 86.43,25.06 87.32,25.35C87.88,25.54 88.65,25.83 89.1,25.27C89.8,24.41 88.73,22.73 87.77,22.62C87.62,22.6 87.49,22.78 87.54,22.91C87.71,23.38 89.42,24.84 88.03,24.81C87.64,24.8 87.11,24.52 86.75,24.39C86.18,24.17 85.64,23.93 85.1,23.66C84.72,23.47 84.39,24.02 84.77,24.23"/>
	<path class="st7" d="M44.1,54.79C43.76,55.84 44.56,56.74 45.5,57.11C46.74,57.61 48.46,57.48 49.58,56.76C49.87,56.57 49.69,56.12 49.35,56.2C48.55,56.39 47.86,56.71 47.02,56.71C46.1,56.71 44.24,56.27 44.58,54.92C44.66,54.61 44.19,54.48 44.1,54.79"/>
	<path class="st7" d="M66.77,47.57C67.3,49.14 68.84,51.25 70.49,51.77C71.91,52.22 74.43,51.07 75.51,50.16C75.69,50.01 75.49,49.77 75.29,49.8C73.82,50.03 71.99,51.63 70.44,50.98C69,50.36 68.06,48.59 67.19,47.39C67.05,47.19 66.68,47.3 66.77,47.57"/>
	<path class="st7" d="M70.9,50.3C71.6,49.93 72.31,49.59 73.05,49.31C73.58,49.1 74.25,49.01 74.65,48.57C74.76,48.45 74.73,48.22 74.55,48.18C73.94,48.06 73.33,48.43 72.78,48.67C72.04,49.01 71.33,49.41 70.63,49.84C70.35,50.02 70.6,50.46 70.9,50.3"/>
	<path class="st8" d="M68.43,119.48C68.27,120.41 67.43,121.03 66.71,121.63C64.95,123.06 63.5,124.86 62.46,126.87C61.91,127.96 61.56,129.49 62.53,130.23C63.1,130.67 63.94,130.61 64.6,130.3C65.26,130 65.8,129.49 66.38,129.06C67.71,128.07 78.97,124.47 82.54,121.51C82.76,121.33 76.12,112.55 72.62,110.51C72.18,110.25 71.71,109.99 71.2,109.97C70.39,109.95 69.7,110.52 69.1,111.06C67.93,112.1 66.68,113.38 66.77,115.09C66.86,116.68 68.71,117.79 68.43,119.48"/>
	<path class="st9" d="M49.36,99.58C49.84,100.96 51.02,101.94 52.15,102.86C56.44,106.33 64.08,117.1 64.9,117.16C65.9,117.24 74.76,112.74 74.33,111.64C74.01,110.84 70.36,104.81 69.65,104.33C65.79,101.75 67.59,100.01 64.62,96.44C69.26,96.75 73.27,91.44 77.17,88.89C83.05,85.04 85.91,81.66 89.97,75.92C90.07,75.78 90.17,75.64 90.19,75.48C90.25,74.93 89.51,74.7 88.96,74.67C85.71,74.5 82.45,74.34 79.2,74.18C77.59,74.1 75.95,74.02 74.38,74.38C72.2,74.89 70.32,76.21 68.52,77.54C64.2,80.71 59.63,83.96 55.94,87.88C53.35,90.62 47.91,95.45 49.36,99.58"/>
	<path class="st2" d="M53.05,98.48C54.1,98.32 55.13,98.26 56.19,98.35C57.1,98.43 58,98.76 58.91,98.78C59.12,98.78 59.2,98.49 59.02,98.38C57.34,97.41 54.77,97.72 52.95,98.1C52.69,98.15 52.8,98.52 53.05,98.48"/>
	<path class="st2" d="M57.58,104.78C59.71,105.83 60.51,108 61.67,109.91C62.39,111.07 63.34,112.45 64.85,112.42C65.23,112.41 65.33,111.82 64.94,111.73C62.73,111.18 61.93,108.67 60.74,106.97C59.95,105.85 59,104.95 57.72,104.43C57.53,104.35 57.39,104.69 57.58,104.78"/>
	<path class="st2" d="M64.7,108.79C65.08,109.17 65.81,109.96 66.39,109.77C66.53,109.73 66.62,109.59 66.58,109.44C66.5,109.16 66.32,109.08 66.08,108.93C65.77,108.73 65.49,108.51 65.23,108.26C64.88,107.93 64.36,108.45 64.7,108.79"/>
	<path class="st2" d="M65.7,114.53C66.29,114.2 66.89,113.87 67.48,113.54C68,113.26 68.62,113.02 69.03,112.59C69.16,112.45 69.03,112.24 68.85,112.28C68.27,112.41 67.74,112.82 67.23,113.12C66.64,113.45 66.05,113.79 65.46,114.12C65.2,114.27 65.44,114.68 65.7,114.53"/>
	<path class="st2" d="M55.44,94.76C56.02,95.03 56.62,95.24 57.19,95.55C57.69,95.82 58.18,96.33 58.74,96.43C58.98,96.48 59.15,96.26 59.05,96.04C58.78,95.48 57.98,95.15 57.45,94.89C56.86,94.61 56.23,94.36 55.57,94.28C55.32,94.25 55.22,94.65 55.44,94.76"/>
	<path class="st1" d="M64.48,128.24C64.89,127.93 65.34,127.65 65.81,127.44C66.16,127.28 66.8,127.24 66.97,126.86C67.02,126.77 66.99,126.67 66.91,126.61C66.54,126.35 65.94,126.72 65.58,126.89C65.06,127.13 64.6,127.45 64.16,127.83C63.95,128.02 64.24,128.41 64.48,128.24"/>
	<path class="st1" d="M68.75,126.22C69.09,126.12 69.35,126.06 69.57,125.77C69.65,125.67 69.56,125.52 69.46,125.49C69.13,125.39 68.9,125.5 68.58,125.61C68.2,125.75 68.36,126.34 68.75,126.22"/>
	<path class="st1" d="M71.98,124.94C72.24,124.87 72.33,124.8 72.49,124.58C72.61,124.43 72.48,124.21 72.32,124.16C72.09,124.09 72,124.1 71.77,124.19C71.32,124.37 71.48,125.07 71.98,124.94"/>
	<path class="st9" d="M122,105.1C120.97,106.04 119.78,106.78 118.52,107.36L11.87,157.05C11.87,157.05 4.06,161.26 0.64,157.05C-2.76,152.84 8.1,155.72 14.08,152.61C19.62,149.74 105.71,111.09 118.34,105.42C119.71,104.81 120.92,103.88 121.76,102.64C122.06,102.22 122.29,101.78 122.35,101.4C122.55,100.24 125.83,101.62 122,105.1"/>
	<path class="st2" d="M96.79,75.45C94.57,78.93 92.73,79.59 90.01,80.53C87.11,81.53 82.37,81.66 79.47,82.66C78.18,83.1 73.49,83 72.77,84.17C71.82,85.71 73.93,87.19 74.55,88.89C75.41,91.27 76.94,91.78 78.61,93.68C80,95.26 81.21,98.29 82.81,99.66C84.41,101.03 85.84,102.84 85.92,104.94C85.94,105.42 85.88,105.91 85.61,106.3C85.38,106.62 85.03,106.82 84.69,107.02C80.89,109.19 76.83,110.92 72.64,112.17C72.1,112.33 59.77,92.92 59.32,91.31C58.39,88 57.73,87.58 56.6,84.34C55.56,81.39 54.31,77.87 56.6,75.74C57.59,74.81 60.68,72.69 61.96,72.28C65.85,71.02 67.82,68.65 71.73,67.47C74.8,66.54 77.92,65.63 81.12,65.61C85.76,65.58 88.01,65.14 92.59,65.61C94.53,65.81 97.77,68.15 97.77,68.15C97.65,70.02 97.7,74.01 96.79,75.45"/>
	<path class="st1" d="M71.54,114.31C68.96,115.22 67.19,118.02 67.49,120.74C67.57,121.53 67.97,122.44 68.75,122.53C69.06,122.57 69.36,122.47 69.65,122.37C72.69,121.31 75.66,120.05 78.54,118.62C83.06,116.36 87.35,113.67 91.6,110.92C91.74,110.83 91.9,110.73 91.97,110.57C92.23,110.02 91.4,109.64 90.81,109.48C88.45,108.86 86.76,106.4 84.32,106.27C83.18,106.21 82.09,106.69 81.05,107.16C79.21,107.98 76.17,108.89 74.96,110.59C73.6,112.5 74.2,113.37 71.54,114.31"/>
	<path class="st9" d="M65.04,75.91C66.76,76.57 68.19,77.27 69.1,78.95C69.85,80.31 70.38,81.79 71.11,83.16C71.27,83.46 71.69,83.2 71.56,82.89C70.84,81.26 70.07,79.34 68.97,77.93C68,76.69 66.55,76.15 65.11,75.65C64.95,75.59 64.88,75.85 65.04,75.91"/>
	<path class="st9" d="M70.3,75.85C70.7,76.72 71.02,77.63 71.21,78.57C71.38,79.41 71.32,80.31 71.59,81.11C71.69,81.42 72.15,81.45 72.23,81.11C72.68,79.36 71.63,77.07 70.84,75.54C70.65,75.18 70.13,75.49 70.3,75.85"/>
	<path class="st9" d="M75.25,80.49C75.34,79.97 75.47,79.45 75.45,78.92C75.45,78.61 75.02,78.56 74.92,78.85C74.75,79.32 74.71,79.83 74.64,80.32C74.58,80.72 75.19,80.9 75.25,80.49"/>
	<path class="st9" d="M79.91,78.71C81.09,78.84 81.99,78.57 83.07,78.11C84.65,77.44 86.29,76.95 87.87,76.3C89.42,75.66 91.15,74.57 91.26,72.74C91.27,72.54 90.97,72.46 90.87,72.64C89.65,74.88 88.08,75.53 85.75,76.34C83.81,77.02 82.02,78.25 79.91,78.27C79.62,78.27 79.63,78.68 79.91,78.71"/>
	<path class="st9" d="M86.81,73.49C87.3,73.17 87.78,72.83 88.24,72.48C88.64,72.17 89.13,71.86 89.39,71.44C89.53,71.2 89.25,70.97 89.03,71.08C88.6,71.28 88.25,71.71 87.88,72.01C87.45,72.36 86.99,72.69 86.53,73C86.23,73.2 86.5,73.69 86.81,73.49"/>
	<path class="st9" d="M74.87,106.86C75.28,105.7 76.81,104.97 77.86,104.52C78.83,104.11 79.85,104.03 80.82,103.69C81.13,103.59 81.05,103.2 80.75,103.16C78.8,102.89 74.74,104.61 74.46,106.81C74.43,107.06 74.8,107.07 74.87,106.86"/>
	<path class="st9" d="M77.92,101.46C78.76,100.81 79.72,99.92 79.41,98.74C79.29,98.3 79.02,98.03 78.67,97.76C77.93,97.21 77.41,96.79 76.87,96.03C76.67,95.74 76.11,95.9 76.26,96.28C76.51,96.94 76.97,97.49 77.55,97.89C78.07,98.27 78.73,98.5 78.88,99.24C79.03,99.98 78.1,100.71 77.6,101.14C77.38,101.34 77.7,101.64 77.92,101.46"/>
	<path class="st9" d="M66.21,81.96C69.61,83.67 71.19,88.02 71.98,91.48C72.08,91.93 72.73,91.73 72.65,91.29C72,87.76 69.85,83.18 66.44,81.55C66.17,81.42 65.93,81.82 66.21,81.96"/>
	<path class="st9" d="M72.7,94.1C72.69,94.53 72.59,94.95 72.91,95.28C73.01,95.39 73.2,95.39 73.3,95.28C73.62,94.95 73.52,94.53 73.51,94.1C73.5,93.58 72.71,93.58 72.7,94.1"/>
	<path class="st9" d="M71.87,106.86C71.8,106.38 72.04,105.93 72.41,105.64C72.77,105.37 73.13,105.43 73.52,105.3C73.65,105.26 73.74,105.07 73.61,104.97C73.12,104.59 72.42,104.91 72.01,105.28C71.52,105.71 71.3,106.34 71.42,106.98C71.48,107.28 71.91,107.15 71.87,106.86"/>
	<path class="st9" d="M70.85,103.31C71.01,103.14 71.23,103.04 71.41,102.88C71.52,102.77 71.47,102.55 71.31,102.51C70.94,102.44 70.67,102.62 70.43,102.9C70.19,103.18 70.59,103.59 70.85,103.31"/>
	<path class="st8" d="M69.98,118.91C73.42,116.98 76.84,114.9 80.71,113.97C83.26,113.35 86.02,113.25 87.53,110.82C87.84,110.32 87.07,109.89 86.75,110.36C84.84,113.15 80.15,112.98 77.23,114.22C74.57,115.35 72.18,116.98 69.77,118.55C69.55,118.7 69.75,119.04 69.98,118.91"/>
	<path class="st8" d="M81.25,112.57C82.55,112.4 84.05,112.04 85.08,111.17C85.8,110.57 86.07,109.39 85.14,108.84C84.64,108.55 84.24,109.27 84.69,109.6C85.88,110.46 81.64,111.91 81.18,112.02C80.87,112.09 80.93,112.61 81.25,112.57"/>
	<path class="st8" d="M82.73,110.26C82.93,110.07 83.13,109.92 83.25,109.67C83.39,109.38 83.1,109.1 82.81,109.24C82.57,109.36 82.41,109.56 82.23,109.76C81.92,110.09 82.4,110.57 82.73,110.26"/>
	<path class="st8" d="M73.47,114.66C74.07,114.65 74.67,114.66 75.27,114.62C75.41,114.61 75.56,114.54 75.63,114.41C75.71,114.24 75.73,114.15 75.63,113.99C75.55,113.87 75.42,113.77 75.27,113.78C74.67,113.82 74.07,113.89 73.47,113.95C73.03,114 73.01,114.67 73.47,114.66"/>
	<path class="st2" d="M131.78,94.13C130.71,95.1 129.48,95.86 128.18,96.47L17.9,147.85C17.9,147.85 9.82,152.2 6.29,147.85C2.76,143.49 13.99,146.47 20.18,143.26C25.91,140.29 114.93,100.33 128,94.46C129.41,93.83 130.66,92.86 131.54,91.59C131.84,91.15 132.08,90.7 132.14,90.31C132.35,89.1 135.74,90.53 131.78,94.13"/>
</svg>