<svg xmlns="http://www.w3.org/2000/svg" width="158.57" height="114.69"><style>.st2{fill:#a0b718}.st4{fill:#ff690f}.st5{fill:#214044}.st9{fill:#e84d00}.st0{fill:#135353}</style><path class="st0" d="M130.05 47.29c.19.68 2.2 2.01 2.88 2.21.77.22 1.93.48 2.57 0 1.34-1.02-2.75-2.75-1.47-3.89 1.01-.92 2.54-.99 3.78-.41 1.23.59 2.23 1.57 3.43 2.23 1.31.72 2.57.92 3.43.36.35-.46-.03-1.05-.27-1.58-.25-.55.6-.68.59-1.29-.01-.61-.32-1.03-1.13-1.67.28-.49.21-1.09.05-1.63-.14-.46-1.58-1-1.39-1.43.5-1.13-2.14-1.97-4.05-2.42-2.99-.71-6.29.03-9.11-1.19-.62-.27-1.2-.64-1.86-.78-.66-.14-1.45-.01-1.84.55-.48.68-.14 1.65.41 2.29 2.38 2.78 2.97 5.01 3.98 8.65M11.64 26.54c-.62.22-1.28.23-1.93.35-2.47.47-2.58-.43-2.56-1.09.01-.58 1.78-1.21 2.14-1.66.37-.45.62-1.15.23-1.57-3.08-.91-6.42.21-8.22-.4-2.37-.92-.99-2.67.15-2.75-.17-.42.01-1.36.3-1.76.5-.72 1.91-1.08 2.34-.91-.14-.66.45-1.39 1.1-1.57.97-.27 1.88.15 2.05-.09.54-.76 2.93-.51 4.88.27l7.83 3.13c.82.33 1.58.81 2.15 1.49 3.61 4.29-8.19 5.76-10.46 6.56"/><path d="M41.69 17.79c-1.79-.13-3.59.08-5.38.18-4.33.25-8.69-.1-12.92-1.04-2.24-.51-4.89-1.08-6.61.45-1.3 1.15-1.52 3.07-1.54 4.81-.02 1.14.03 2.36.67 3.31 1.24 1.83 3.87 1.77 6.05 2.07 3.68.52 7.01 2.59 10.69 3.13 2.1.3 4.24.09 6.37.24 3.87.28 7.54 1.73 11.15 3.17.04 3.53.69 6.97 1.71 10.32.77 2.54 3.13 3.01 4.24 5.46 1.5 3.32-.08 7.94 1.62 11.12.24.45 2.43 1.57 2.84 1.88.57.41 1.32.43 2.02.44 7.8.12 15.6.23 23.4.34 1.75.03 10.18-2.24 11.51-3.39 2.37-2.03-2.37-5.62-3.7-8.44-2.37-5.01-5.57-6.57-6.28-12.06-.11-.84.13-3.9 1.43-4.03 5.3-.53 10.59-.56 15.64 1.18 2.29.78 4.7.07 6.84 1.19a77.435 77.435 0 0016.85 6.38c.82-2.37 1.16-4.92.98-7.43-.05-.72-.16-1.49-.6-2.07-.38-.52-.98-.83-1.55-1.12-5.78-2.94-11.62-5.77-17.52-8.47-1.79-.82-3.59-1.63-5.52-1.97-3.19-.57-6.52.17-9.67-.55-1.86-.42-3.58-1.33-5.42-1.87-2.69-.77-4.22-1.44-6.92-.23-1.4-.93 2.9-4.98 0-5.45-.63-.1-4.23-1.17-4.86-1.31-5.56-1.25-7.02.47-10.79 0-2.38-.3-7.41-1.07-9.31 1.18-.76.89.64 4.43-.08 5.03-1 .82-4.13.08-5.25-.13-3.4-.63-6.61-2.08-10.09-2.32" fill="#a8cb17"/><path class="st2" d="M77.96 18.98c-.52-.27-1.14-.23-1.73-.19-4.3.24-9.05-1.73-13.31-1.5-4.15.23-2.6 4.24-1.99 7.73.05.27.1.54.28.75.22.26.58.34.91.43a6.08 6.08 0 013.27 2.29c.27.38.5.8.89 1.05.4.26.91.29 1.38.32 1.54.1 3.07.19 4.61.29.54.03 1.09.07 1.61-.08.55-.15 1.03-.49 1.5-.82.61-.43 1.22-.87 1.83-1.3.29-.21.59-.42.76-.73.33-.56.16-1.26.17-1.91 0-1.14.56-2.2.8-3.31.25-1.12.05-2.51-.98-3.02m-18.62 9.1c1.47 1.23 2.08 2.72 3.08 4.28.57.92 1.63 2.01 2.77 1.49.28-.12.34-.6.1-.79-.48-.38-1.05-.47-1.49-.92-.54-.55-.84-1.29-1.24-1.93-.71-1.12-1.64-2.03-2.72-2.78-.38-.26-.87.35-.5.65"/><path class="st2" d="M68.61 29.1c.34 3.05-1.86 5.37-2.11 8.3-.21 2.49 1.06 4.83.84 7.27-.12 1.4-1.06 2.01-.76 3.51.23 1.11 1.15 1.79 1.77 2.64 1.54 2.11 2.72 4.05 3.43 6.62.17.61 1.13.35.96-.27-.63-2.26-1.51-3.78-2.65-5.8-1.75-3.09-1.78-5.17-1.4-8.48.05-.48-.39-.98-.4-1.43-.45-11.9.23-3.95.75-8.08.25-1.98.57-2 .15-4.36-.06-.32-.62-.25-.58.08m13.9-7.17c-.58 2.79-.59 6.07 1.85 8.01.45.36 1.11-.25.65-.66-2.12-1.89-2.33-4.52-1.92-7.19.06-.37-.5-.55-.58-.16m3.41 9.6c.24.32.45.61.75.86.41.35.93-.07.72-.55-.15-.32-.33-.57-.54-.85-.41-.55-1.35-.01-.93.54m-34.2-.59c-.34-1.18-.16-2.67-.29-3.91-.11-1.15.18-2.27.06-3.38-.03-.31-.38-.5-.63-.26-.88.83-.72 2.24-.61 3.35.14 1.43 0 3.11.44 4.48.21.65 1.22.38 1.03-.28m74.55 11.1c.66-.45 1.07-1.17.97-1.99-.06-.5-.37-.9-.51-1.38-.17-.61 0-1.24-.23-1.83-.09-.22-.46-.35-.58-.07-.28.61-.2 1.33-.02 1.97.28.96 1.13 1.89.02 2.71-.35.25-.02.85.35.59M19.2 18.53c-1.11.2-1.22 1.57-1.23 2.48-.01.93.15 2.44 1.23 2.73.23.07.37-.18.28-.37-.29-.65-.75-1.1-.74-1.87.01-.37.24-1.89.72-2.03.62-.17.36-1.05-.26-.94m32.17 19.62c1.46 2.88 3.11 5.69 5.13 8.21 1.69 2.12 3.74 1.45 6.18 2 .28.07.47-.26.28-.48-.51-.54-.83-.65-1.58-.73-.52-.06-1.03.01-1.55-.01-1.51-.07-2.23-.78-3.12-1.95-1.76-2.33-3.35-4.81-4.83-7.33-.19-.33-.68-.04-.51.29m21.81 8.55c1.51-.9 2.95-1.91 4.31-3.04 1.18-.98 2.68-2.08 3.28-3.53.15-.34-.31-.61-.59-.46-1.26.72-2.2 2.08-3.29 3.04-1.31 1.16-2.73 2.2-4.21 3.13-.54.34-.05 1.19.5.86m30.44-16.1c.21.74.5 1.45.89 2.12.28.48.72 1.39 1.32 1.47.17.03.36-.06.35-.26-.03-.59-.64-1.02-.95-1.5-.41-.63-.72-1.3-.96-2.01-.13-.41-.77-.24-.65.18m2.21-.07c.19.63.43 1.24.71 1.84.26.53.54 1.24 1.1 1.49.3.14.74-.01.71-.41-.04-.57-.43-.99-.7-1.48a10 10 0 01-.79-1.73c-.23-.63-1.23-.38-1.03.29m-71.3-7.97c-.08 1.05.07 2.16.53 3.12.37.76 1 1.82 1.94 1.86.16 0 .28-.17.23-.31-.2-.74-.94-1.23-1.34-1.87-.54-.87-.83-1.77-.85-2.8-.01-.33-.49-.32-.51 0m2.62 1.86c.12.84.88 2.76 1.99 2.48.24-.06.33-.3.3-.53-.07-.43-.54-.63-.81-.94-.32-.35-.52-.78-.63-1.24-.14-.56-.92-.31-.85.23"/><path d="M68.53 26.48c.98.61 1.96.84 3.12.73 1.82-.16 3.26-1.47 4.31-2.97 2.91-4.17 4.72-8.69 4.71-13.78 0-1.25-.11-2.91-.63-4.05-.97-2.14-2.23-3.34-4.44-4.16-5.71-2.13-13.85.31-14.58 7.1-.69 6.48 1.85 13.6 7.51 17.13" fill="#f1d291"/><path class="st4" d="M81.15 11.31c.48-6.32-.97-8.62-5.06-10.42-1.8-.8-3.82-.91-5.79-.89-3.26.05-6.06.57-8.24 3-.93 1.02-2.6 3.95-2.26 7.31 0 0 4.28-.26 5.44-.13 1.59.19 15.83.65 15.91 1.13"/><path class="st4" d="M62.87 16.85c.04.14.07.29.05.44-.06.29-.35.49-.65.51-.29.02-.57-.11-.81-.29-.89-.66-1.19-1.84-1.36-2.93-.21-1.29-.34-2.59-.39-3.89-.03-.9-.02-1.84.43-2.62.45-.77 1.75-1.5 2.53-.73.65.64.3 2.2.18 3.02-.33 2.21-.48 4.27.02 6.49"/><path class="st5" d="M62.68 10.03H59.7c-.8 1.67.1 3.31.1 3.31s1.35.67 2.88 1.32c0 0-.81-3.25 0-4.63"/><path class="st5" d="M64.44 17.28c1.98.91 3.59.6 5.57-.33 1.25-.58 1.95-1.81 3.11-1.06.36.24 1.36.91 1.66 1.22 1.45 1.53 4.24 1.44 5.59-.17 1.29-1.54 1-3.63.78-5.63-2.47-1.1-14.07-1.82-18.47-1.28-.88 2.62-.53 6.19 1.76 7.25"/><path d="M72.41 15.11c.31 0 .65.09 1 .33.23.14 1.39.9 1.77 1.3.58.62 1.46.95 2.42.92.95-.03 1.81-.42 2.36-1.07 1.07-1.28.89-3.03.69-4.89-2.74-.94-13.01-1.63-17.56-1.17-.69 2.42-.25 5.41 1.57 6.26 1.86.85 3.34.51 5.12-.33.34-.16.65-.38.95-.6.48-.34 1.03-.75 1.68-.75m5.07 3.63c-1.2 0-2.32-.45-3.09-1.25-.2-.22-.96-.75-1.56-1.15-.44-.29-.69-.17-1.47.4-.32.23-.69.5-1.12.7-2.01.94-3.8 1.36-6.03.33-2.55-1.18-3.04-4.95-2.04-7.91l.11-.32.33-.04c4.37-.54 16.13.15 18.76 1.32l.29.12.06.58c.21 1.93.45 4.12-.94 5.77-.74.88-1.89 1.41-3.15 1.45h-.15" fill="#3393a0"/><path d="M72.21 16.46c.09.53 1.11 2.26.37 2.55-.29.12-.63-.21-.95-.12-.26.07-.38.27-.41.53-.01.18.12.4.28.48.74.38 1.83.34 2.15-.56.4-1.09-.38-2.11-.75-3.07-.17-.43-.77-.27-.69.19" fill="#b58c43"/><path d="M73.44 21.38c-2.03-.1-3.44-.23-5.35-.59.04.52.32 2.86 2.41 2.98 2.3.14 3.1-1.92 2.94-2.39m-7.78-9.08c.44.58.87 1.16 1.3 1.74.34.45.66 1.09 1.17 1.35.13.07.28-.05.24-.19-.13-.56-.67-1.03-1.02-1.46-.46-.56-.91-1.12-1.37-1.68-.14-.18-.45.06-.32.24m1.9-.28c.33.48.66.97.99 1.45.26.39.49.91.91 1.14.17.08.32-.06.29-.23-.07-.47-.52-.88-.79-1.26-.33-.45-.66-.89-.99-1.34-.18-.24-.58-.02-.41.24m2.38 0c.31.36.6.76.96 1.07.12.1.34-.03.24-.19-.27-.4-.64-.75-.97-1.11-.14-.17-.37.07-.23.23m3.63-9.74c.57.02 1.11.18 1.59.5.4.26.67.8 1.09.99.11.05.21-.01.22-.13.05-.55-.63-1.05-1.04-1.31-.56-.36-1.2-.53-1.86-.54-.32 0-.32.48 0 .49m3.71 2.59c.23.39.4.86.78 1.12.15.1.29-.07.27-.21-.06-.42-.41-.8-.65-1.15-.16-.24-.55-.03-.4.24m1.69 2.61c-.02-.02-.04-.03-.05-.04-.05-.03-.13-.03-.17 0a.21.21 0 00-.06.04c-.21.15-.15.52.14.52.29 0 .35-.37.14-.52" fill="#fefff1"/><path class="st0" d="M34.23 96.31c-.36.74-.38 1.6-.4 2.42-.02.76-.02 1.56.37 2.21.78 1.29 2.61 1.32 4.11 1.18 5.81-.51 11.61-1.03 17.42-1.54 1.75-.16 3.76-.47 4.65-1.98.94-1.58.1-3.66-1.14-5.03-1.23-1.37-2.84-2.4-3.82-3.97-.29-.46-.53-.98-.98-1.31-3.43-2.52-7.58-1.08-10.02 1.45-2.61 2.7-8.6 3.25-10.19 6.57"/><path class="st9" d="M43.77 50.23c-1.23-.64-5.33-.27-5.92.31-2.76 2.77-5.38 6.27-5.06 10.17.26 3.14 2.38 5.78 3.49 8.73 2.26 5.98.31 13.05 3.09 18.81.32.67.73 1.33 1.35 1.73.67.42.85 1.62 1.56 1.28 5.02-2.37 9.35 1.05 13.13-.61.56-.24 1.23-.05 1.77-.33 1.15-.6 1.48-2.1 1.39-3.39-.45-6.33-6.88-11.74-6.57-18.08 3.94.76 6.93 2.89 10.56 4.62 1.49.71 2.94 1.5 4.44 2.2 4.46 2.09 9.29 3.38 14.2 3.79 3 .25 15.57.71 20-4.81 5.51-6.87-2.15-14.45-9.04-17.84-.78-.38-20.07 4.24-26.85.64-6.84-3.64-14.71-3.65-21.54-7.22"/><path class="st4" d="M74.38 52.38c-.45 3.16 1.09 6.21 2.47 9.09 1.91 4.01 3.58 8.15 4.8 12.43 1.51 5.28 2.51 11.08 6.37 14.99l8.04-2.4c2.86-.86 6.14-2.11 7-4.98.91-3.03-1.42-5.95-2.95-8.72-1.04-1.86-1.75-3.88-2.46-5.89-.9-2.57-1.81-5.15-2.71-7.72-1.08-3.05-2.19-6.17-4.21-8.69-3.85-4.8-15.18-6.34-16.35 1.89"/><path class="st0" d="M92.24 78.88c1.82-.59 3.79-1.19 5.63-.66 2.09.6 3.64 2.83 3.27 4.97-.4 2.31-2.59 3.79-4.58 5.01-1.88 1.14-3.79 2.3-5.91 2.91-3.75 1.08-11.21 2-9.76-4.02 1.21-4.99 7.1-6.84 11.35-8.21"/><path class="st4" d="M46.31 56.66c1 .93 1.7 2.09 2.2 3.36.39 1 .57 2.09 1.04 3.04.12.26.57.15.55-.14-.22-2.38-1.59-5.12-3.4-6.65-.27-.23-.65.14-.39.39m6.2 1c.41.83.76 1.67 1.05 2.55.22.7.28 1.51.68 2.12.1.15.39.16.42-.05.13-.8-.25-1.66-.51-2.41-.31-.86-.68-1.7-1.11-2.52-.18-.35-.7-.04-.53.31m8.64.77c2.91 1.61 4.42 4.03 5.77 6.96.84 1.82 1.64 3.9 3.29 5.14.2.14.46-.14.33-.33-1.5-2.32-2.71-4.63-4.03-7.05-1.23-2.24-2.86-3.92-5.13-5.12-.26-.14-.49.26-.23.4m10.89 6.3c.57 2.27 1.78 4.27 2.88 6.31.9 1.69 1.71 3.36 3.28 4.52.44.33.86-.41.43-.73-1.63-1.23-2.46-3.19-3.41-4.93-.96-1.73-2.03-3.43-2.67-5.3-.11-.32-.59-.19-.51.13M51.6 66.95c-.05-.6-.17-1.39-.67-1.78-.18-.14-.42-.02-.37.21.1.55.41 1 .47 1.57.04.36.6.37.57 0"/><path class="st9" d="M77.39 55.63c.98 3.34 2.25 6.55 3.75 9.68.99 2.05 2.03 4.53 4.4 5.19.31.08.5-.36.22-.52-2.46-1.41-3.47-3.9-4.61-6.37-1.22-2.65-2.29-5.37-3.32-8.1-.11-.27-.53-.16-.44.12M92.2 74.8c.52-.47 2.24-.22 2.88-.22.81 0 1.65.1 2.45-.06.29-.05.27-.5 0-.57-1.18-.28-2.55-.09-3.74-.01-.7.04-1.53-.04-1.98.57-.17.23.19.47.39.29m1.88-4.73l1.31.09c.38.03.65.11.92-.19.08-.09.12-.25.04-.36-.23-.34-.46-.32-.86-.34-.47-.04-.94-.07-1.41-.11-.58-.04-.58.86 0 .91m-2.27-5.17c.55.16 1.1.32 1.65.47.43.13.88.39 1.29.11.13-.09.17-.24.1-.39-.21-.44-.73-.44-1.17-.54-.55-.14-1.11-.27-1.66-.41-.49-.11-.69.62-.21.76"/><path class="st4" d="M41.76 89.12c1.65-1.46 3.76-.49 5.59-.16.24.05.35-.23.16-.37-1.53-1.14-4.6-1.08-5.93.35-.12.12.06.29.18.18m-4.08-21.87c.83 1.03 1.62 1.79 1.96 3.15.31 1.28-.03 2.67.39 3.9.07.21.33.19.41 0 .81-2.02-.11-6.69-2.61-7.3-.16-.04-.24.14-.15.25m3.63 12.22c.16.48.26.93.58 1.32.18.21.48.02.5-.21.04-.46-.14-.89-.27-1.33-.16-.51-.97-.29-.81.22"/><path d="M13.02 107.4c-1.1-.64 101.25-28.64 117.07-36.99 15.82-8.35 23.58-.19 26.46 3.29 2.88 3.47 4.03 10.39-6.04 15.7-10.07 5.31-112.76 25.01-112.76 25.01s-8.34 2.43-24.73-7.01" fill="#0a84b7"/><path d="M142.05 70.22c1.77 1.61 3.49 3.26 5.14 4.98 1.63 1.7 3.06 3.72 4.82 5.28.19.16.49-.04.35-.27-1.14-1.93-2.91-3.58-4.46-5.19a78.774 78.774 0 00-5.48-5.17c-.25-.22-.62.14-.37.37m-2.03 3.94c3.34 3.27 6.21 6.89 9.35 10.34.28.32.84-.1.59-.46-2.65-3.79-6.18-7.13-9.59-10.22-.24-.21-.58.12-.35.34m.52 8.64c.75.67 1.47 1.37 2.14 2.12.56.62 1.15 1.7 1.92 2.04.27.12.54-.08.49-.38-.15-.83-1.11-1.6-1.69-2.18-.73-.75-1.52-1.45-2.34-2.11-.36-.29-.87.19-.52.51m-2.46 2.75l1.5 1.35c.39.36.83.97 1.39.95.17 0 .37-.15.34-.33-.08-.6-.67-.88-1.11-1.24-.53-.42-1.06-.85-1.59-1.27-.37-.3-.9.2-.53.54M25.41 108.44c1.26.65 2.53 1.28 3.82 1.88 1.12.52 2.29 1.2 3.51 1.42.25.04.39-.26.17-.41-1.07-.74-2.41-1.13-3.61-1.66-1.21-.55-2.42-1.12-3.61-1.7-.31-.16-.59.31-.28.47m8.82.97c.51.38 1.05.7 1.64.96.5.21 1.09.51 1.63.33.22-.07.32-.36.14-.54-.39-.36-.95-.41-1.43-.61-.55-.22-1.07-.53-1.55-.88-.45-.32-.86.41-.43.74m4.4-.46c.39.16.78.31 1.17.47.37.15.7.33 1.1.33.32 0 .52-.43.27-.65-.3-.28-.65-.37-1.03-.51-.43-.16-.85-.32-1.28-.48-.52-.2-.74.63-.23.84" fill="#0b769b"/></svg>