<svg xmlns="http://www.w3.org/2000/svg" width="114.9" height="159.21"><style>.st2{fill:#ff690f}.st1{fill:#203f43}.st5{fill:#f25508}.st8{fill:#92a6b5}.st7{fill:#a7ca16}.st9{fill:#d3e0eb}.st0{fill:#e84d00}</style><path class="st0" d="M76.26 113.63s24.3-3.95 37.55 5.74v4.99s-29.72-16.3-47.91-4.55c0 0 .59-4.78 10.36-6.18"/><path class="st1" d="M105.16 113.56c-.12-.01-.24 0-.37.03l-20.2 4.98c-.08.02-.16.05-.24.08-.15.03-.3.05-.46.09-4.04 1-7.35 5.12-7.35 9.16v3.79c0 4.01 3.77 7.46 8.16 7.06 2.77-.24 4.14-3.6 5.46-5.94.33-.6.49-1.25.49-1.86 0-1.5.9-3.14 2.33-3.95 2.35-1.33 4.54-.11 4.54 2.14v.09c0 .6.15 1.17.48 1.61 1.31 1.71 3.7 2.03 6.42 1.33 4.01-1.03 7.22-5.12 7.22-9.13l1.78-3.17c0-3.75-4.63-6.78-8.26-6.31"/><path class="st2" d="M106.98 114.9c-.12-.01-.24 0-.37.03l-20.2 4.98c-.08.02-.16.05-.24.08l-.46.09c-4.04 1-7.35 5.12-7.35 9.16v3.79c0 4.01 3.21 6.51 7.21 5.57 2.71-.63 5.09-2.11 6.4-4.45.34-.6.5-1.25.5-1.86 0-1.5.9-3.14 2.33-3.95 2.35-1.33 4.53-.11 4.53 2.14v.09c0 .6.16 1.17.49 1.61 1.3 1.71 3.7 2.03 6.42 1.33 4-1.03 7.22-5.12 7.22-9.13v-3.79c0-3.75-2.85-6.16-6.48-5.69"/><path d="M106.22 131.66c2.97-.77 5.38-3.82 5.38-6.82v-3.79c0-2.78-2.08-4.61-4.84-4.25-.08.01-.16.01-.24.01l-20.05 4.94c-.1.04-.2.08-.31.1a.36.36 0 01-.11.02l-.11.02c-.08.02-.15.03-.23.05-3.03.75-5.49 3.82-5.49 6.84v3.8c0 2.99 2.41 4.86 5.37 4.16l.12-.03c1.26-.31 3.56-1.14 4.71-3.19.12-.22.19-.5.19-.78 0-2.34 1.49-4.82 3.62-6.03.55-.31 1.11-.54 1.67-.67 2.92-.72 5.29 1.07 5.29 3.98v.09c0 .28.07.52.19.68 1.15 1.51 3.46 1.21 4.73.9z" fill="#0983b6"/><path d="M86.47 121.75c-.1.04-.2.08-.31.1-.03.01-.07.02-.1.02l-.12.02c-.08.02-.15.03-.23.05-2.91.72-5.29 3.57-5.48 6.48l6.81-6.81zm9.91-2.44L80.8 134.89c.41.7.99 1.25 1.71 1.59l18.25-18.25zm12.61-2.27l-9.52 9.52c.99.66 1.63 1.78 1.7 3.18 3.4-3.39 6.8-6.79 10.2-10.19a3.961 3.961 0 00-2.38-2.51m2.3 9.63l-4.94 4.94c2.3-.65 4.23-2.66 4.94-4.94" fill="#1591bc"/><path class="st1" d="M80.71 113.13s-9.51.68-14.27 2.85c-13.73 6.25-6.42 15.08.95 16.24 6.3.99 8.87 0 8.87 0v-5.4s-8.69 1.46-10.6-2.39c-1.9-3.86 2.66-9.34 15.05-11.3"/><path class="st5" d="M77.31 134.78c-1.2 0-2.18-.98-2.18-2.18v-4.96c0-1.2.98-2.18 2.18-2.18 1.2 0 2.18.98 2.18 2.18v4.96c0 1.2-.98 2.18-2.18 2.18m36.56-8.49h-.13c-.56 0-1.02-.47-1.02-1.03v-6.2c0-.57.46-1.03 1.02-1.03h.13c.57 0 1.03.46 1.03 1.03v6.2c0 .56-.46 1.03-1.03 1.03"/><path d="M52.06.52s18.46 3.07 19.76 22.74C73.12 42.92 52.89 67 50.74 99.61c-2.16 32.61-6.18 64.88-32.29 58.87-26.09-6-15.62-36.79-3.3-67.06 12.32-30.27 4.66-60.77 14.42-77.89C39.34-3.57 52.06.52 52.06.52" fill="#e24000"/><path class="st2" d="M52.38.61s15.86 2.4 17.16 22.06c1.3 19.67-18.93 43.75-21.08 76.36-2.15 32.61-6.18 64.88-32.28 58.87-26.1-6.01-15.62-36.79-3.3-67.06C25.2 60.57 17.53 30.07 27.3 12.95 37.06-4.16 52.38.61 52.38.61"/><path class="st7" d="M44.59 77.43c-2.24 1.4-5.21.71-6.61-1.52l-9.94-15.89c-1.4-2.23-.71-5.21 1.52-6.61 2.24-1.39 5.21-.71 6.61 1.52l9.94 15.89c1.4 2.23.71 5.21-1.52 6.61"/><path class="st0" d="M44.59 77.43c-.29.18-.68.09-.86-.2L32.68 59.58a.629.629 0 01.2-.86c.29-.18.68-.09.86.2l11.05 17.65c.18.29.09.67-.2.86"/><path class="st8" d="M31.87 72.57a.621.621 0 01-.75-.45l-2.39-9.32c-.08-.33.12-.67.45-.76.33-.08.67.12.75.45l2.38 9.32c.09.33-.11.67-.44.76m13.91-8.71c.22-.26.19-.65-.07-.87l-7.35-6.22a.618.618 0 00-.8.94l7.35 6.22c.26.22.65.19.87-.07"/><path class="st9" d="M44.81 64.47c.34.53 1.04.69 1.57.36.54-.34.7-1.04.36-1.57-.33-.54-1.03-.7-1.57-.36-.53.33-.69 1.03-.36 1.57"/><path class="st8" d="M46 67.85c-.22.04-.36.25-.32.46l1.12 6.12c.04.21.25.36.47.32.21-.04.36-.25.32-.47l-1.12-6.11a.4.4 0 00-.47-.32"/><path class="st9" d="M46.73 67.94c.05-.4-.23-.77-.64-.82a.736.736 0 10.64.82"/><path class="st8" d="M35.36 74.51a.4.4 0 01.56-.09l5 3.69c.18.13.22.38.09.55a.4.4 0 01-.56.09l-5.01-3.68a.408.408 0 01-.08-.56"/><path class="st9" d="M35.12 75.21a.745.745 0 01-.46-.94c.13-.38.55-.59.93-.46.39.13.59.55.46.93-.13.39-.54.6-.93.47M30.17 65c.16-.1.25-.27.25-.46.05-2.02 1.07-3.98 2.9-5.12a6.177 6.177 0 015.87-.37.555.555 0 00.71-.79l-2.55-4.07c-1.71-2.73-5.22-3.86-8.1-2.43-3.31 1.65-4.41 5.77-2.5 8.83l2.65 4.24c.16.26.51.33.77.17m12.8 10.93c-1.52.77-3.18.84-4.61.33-.33-.11-.61.26-.43.56l.3.47c1.45 2.31 4.69 3.33 7.1 2.04 2.74-1.45 3.64-4.93 2.02-7.52l-.36-.58c-.19-.3-.64-.19-.69.16-.25 1.82-1.43 3.58-3.33 4.54"/><path class="st0" d="M38.06 63.63c.53.84.27 1.94-.56 2.46a1.788 1.788 0 11-1.9-3.03c.84-.52 1.94-.27 2.46.57m3.46 6.51a1.264 1.264 0 01-2.14 1.34 1.264 1.264 0 012.14-1.34"/><path class="st9" d="M32.84 71.96c.33.54.17 1.24-.37 1.57a1.138 1.138 0 11-1.21-1.93c.54-.33 1.24-.17 1.58.36"/><path class="st7" d="M37.04 110.22c-2.23 1.4-5.2.71-6.6-1.52L20.5 92.81c-1.4-2.23-.72-5.2 1.52-6.6 2.23-1.4 5.21-.72 6.61 1.52l9.94 15.88c1.39 2.24.71 5.21-1.53 6.61"/><path class="st0" d="M37.04 110.22c-.29.18-.67.09-.86-.2L25.14 92.37a.629.629 0 01.2-.86c.29-.18.68-.09.86.2l11.04 17.65c.18.29.1.68-.2.86"/><path class="st8" d="M24.32 105.36a.626.626 0 01-.75-.45l-2.38-9.32c-.09-.33.11-.67.44-.75.33-.09.67.11.76.44l2.38 9.32c.08.33-.12.67-.45.76m13.91-8.71c.22-.26.19-.65-.07-.87l-7.34-6.22a.618.618 0 00-.87.07.63.63 0 00.07.88l7.34 6.22c.26.22.65.18.87-.08"/><path class="st9" d="M37.27 97.26c.33.53 1.03.69 1.57.36.53-.33.69-1.04.36-1.57-.33-.53-1.04-.7-1.57-.36-.53.33-.7 1.03-.36 1.57"/><path class="st8" d="M38.46 100.64c-.22.04-.37.25-.33.46l1.13 6.12a.395.395 0 10.78-.14l-1.12-6.12a.395.395 0 00-.46-.32"/><path class="st9" d="M39.19 100.73a.74.74 0 00-.64-.82c-.4-.05-.77.23-.82.64-.06.4.23.77.63.82.41.05.77-.23.83-.64"/><path class="st8" d="M27.81 107.3c.13-.18.38-.21.56-.08l5.01 3.68c.18.13.22.38.08.56-.13.17-.38.21-.55.08l-5.01-3.68a.4.4 0 01-.09-.56"/><path class="st9" d="M27.58 108a.744.744 0 01-.47-.93c.13-.39.55-.6.94-.47.38.13.59.55.46.94-.13.38-.55.59-.93.46m-4.96-10.21c.16-.1.25-.27.26-.46a6.182 6.182 0 012.89-5.12 6.205 6.205 0 015.87-.37c.18.08.37.08.53-.03.26-.16.34-.5.18-.76l-2.54-4.07c-1.71-2.73-5.22-3.86-8.1-2.43-3.31 1.65-4.42 5.78-2.5 8.84l2.64 4.23c.17.26.51.34.77.17m12.8 10.93c-1.51.77-3.17.84-4.6.34-.33-.12-.62.26-.43.55l.29.47c1.45 2.32 4.7 3.33 7.11 2.04 2.74-1.45 3.63-4.93 2.02-7.52l-.37-.58c-.19-.3-.64-.19-.69.16-.25 1.82-1.42 3.58-3.33 4.54"/><path class="st0" d="M30.52 96.42c.52.84.27 1.94-.57 2.46-.84.53-1.94.27-2.46-.56a1.788 1.788 0 113.03-1.9m3.46 6.51c.37.6.19 1.37-.4 1.75-.6.37-1.38.19-1.75-.41-.37-.59-.19-1.37.4-1.74.6-.37 1.38-.19 1.75.4"/><path class="st9" d="M25.29 104.75c.33.54.17 1.24-.36 1.57-.53.34-1.24.18-1.57-.36a1.138 1.138 0 111.93-1.21"/><path class="st5" d="M62.2 51.36c1.53-3.74 2.97-7.34 4.16-10.81a837.44 837.44 0 00-19.92-9.38c-7.83-3.56-15.39-6.85-22.44-9.8-.95 3.61-1.53 7.56-1.96 11.78 6.08 2.96 12.58 6.02 19.36 9.1a764.4 764.4 0 0020.8 9.11M5.39 110.61c-1.27 3.78-2.38 7.48-3.26 11.04 6.84 3.37 14.28 6.89 22.09 10.44 6.25 2.84 12.34 5.52 18.13 7.98 1.18-3.53 2.13-7.43 2.9-11.59-5.09-2.45-10.45-4.95-15.99-7.47-8.37-3.81-16.42-7.3-23.87-10.4M.25 132.03c-.26 2.62-.32 5.12-.14 7.46 6.01 3.09 13.01 6.47 20.55 9.9 4.34 1.97 8.55 3.81 12.54 5.51 1.98-1.58 3.69-3.6 5.16-6.01a523.97 523.97 0 00-14.38-6.8c-8.67-3.94-16.82-7.38-23.73-10.06M32.39 6.25c-1.6 1.56-3.15 3.5-4.59 5.87 5.62 2.86 12.03 5.94 18.88 9.05 8.09 3.68 15.73 6.92 22.34 9.52.44-2.55.65-5.02.54-7.42-5.79-2.95-12.44-6.15-19.57-9.4-6.22-2.83-12.18-5.4-17.6-7.62"/></svg>