<svg xmlns="http://www.w3.org/2000/svg" width="156.25" height="158.92"><style>.st2{fill:#214044}.st1{fill:#0a84b7}.st3{fill:#ff690f}.st6{fill:#a8cb17}.st8{fill:#0d6d8e}.st7{fill:#e84d00}.st9{fill:#163133}</style><path d="M59.56 41.91c2.65-1.22 4.09-4.16 4.71-7.01.44-2.02.57-4.2-.26-6.09-.61-1.36-1.67-2.48-2.87-3.37-3.18-2.38-7.63-3.24-11.26-1.61-10.82 4.85.99 22.08 9.68 18.08" fill="#f1d291"/><path class="st1" d="M51.93 30.48c1.83-.65 3.67-1.29 5.5-1.94.56-.2 1.15-.4 1.75-.32 1.06.14 1.94.99 2.46 1.93 2.63 4.75 3.2 2.01 3.24 1.88 1.07-4.21-1.27-9.51-4.32-11.44-3.77-2.39-8.66-2.47-13.36.61-2.03 1.34-4.09 4.53-4.02 8.06.1 5.9 6.27 2.09 8.75 1.22"/><path class="st2" d="M63.31 23.62c-1.05 1.8-3.27 2.46-5.19 3.26-.72.31-1.54.82-1.52 1.6 0 .25.1.49.19.72.38.94.75 1.88 1.13 2.83l1.88-.62c1.22-1.13 4.62-3.64 4.7-4.69.12-1.57-.52-2.66-1.19-3.1"/><path class="st2" d="M47.34 36.54c.8.38 1.74.54 2.57.25.83-.29 1.51-1.12 1.44-2 1.56.35 3.21.33 4.77-.06 1.51-.37 3.08-1.25 3.49-2.76.46-1.67-.67-3.33-1.79-4.65-.13-.15-.26-.3-.44-.36-.25-.06-.5.06-.72.18a46.667 46.667 0 01-11.55 4.28c-.47.1-.95.21-1.31.51-1.16.98 2.55 4.15 3.54 4.61"/><path class="st3" d="M57.23 27.44c-.06 0-.17.04-.34.13a46.388 46.388 0 01-11.68 4.33c-.43.1-.83.19-1.1.41-.02.02-.05.05-.04.17.14 1.04 2.66 3.23 3.48 3.62.46.21 1.34.53 2.2.23.67-.24 1.15-.9 1.11-1.5l-.06-.66.65.14c1.5.33 3.07.31 4.55-.05 1.66-.42 2.83-1.32 3.14-2.42.4-1.47-.7-3.02-1.7-4.2-.04-.05-.15-.19-.2-.2h-.01M49 37.43c-.61 0-1.24-.14-1.87-.44-.89-.42-3.84-2.84-4.04-4.38-.05-.42.09-.8.39-1.05.45-.38 1.01-.51 1.5-.62 4-.9 7.84-2.32 11.45-4.24.24-.12.64-.33 1.08-.21.34.1.56.35.69.51 1.15 1.37 2.41 3.19 1.89 5.11-.58 2.08-2.89 2.86-3.85 3.1-1.45.36-2.97.42-4.45.17-.18.83-.83 1.57-1.71 1.88-.34.12-.71.17-1.08.17"/><path d="M51.7 36c.03.49.08.97.19 1.44.08.36.18.93.47 1.19.28.24.74.21 1.09.18.45-.04.88-.07 1.16-.45.12-.17-.02-.37-.18-.43-.27-.1-.45-.02-.72.03-.18.03-.45.08-.64.06-.2-.02-.21.01-.31-.2-.3-.57-.5-1.25-.65-1.87-.06-.23-.43-.18-.41.05" fill="#b58c43"/><path d="M51.22 32.01c.42.18.83.34 1.25.51.41.15.84.39 1.27.41.11.01.2-.16.1-.23-.32-.25-.72-.34-1.1-.47-.47-.16-.94-.33-1.41-.47-.15-.05-.25.19-.11.25m1.48-.75c.56.19 1.12.35 1.66.56.49.18.96.5 1.48.55.17.01.23-.21.13-.32-.34-.35-.92-.51-1.37-.68-.58-.21-1.17-.41-1.79-.51-.26-.05-.37.32-.11.4m2.27-.96c.36.19.73.36 1.1.5.34.12.69.31 1.04.19.12-.04.17-.18.08-.27-.23-.23-.51-.25-.82-.35-.4-.13-.78-.3-1.15-.49-.28-.15-.52.27-.25.42m-9.92-.71c.07-.5.04-1.02.06-1.53.01-.45.13-.94-.01-1.36-.05-.14-.26-.19-.34-.04-.23.41-.17.93-.18 1.4 0 .53 0 1.06.12 1.58.05.21.33.14.35-.05m1.02-4.13c.13-.33.31-.63.21-.98-.04-.16-.22-.19-.34-.09-.27.24-.28.59-.35.94-.06.31.36.42.48.13m.94-1.85c.16-.18.27-.32.26-.57-.01-.12-.13-.24-.26-.19-.24.07-.32.19-.45.41-.15.28.24.6.45.35" fill="#fefff1"/><path class="st2" d="M74.15 119.08C54.69 99.07 35.27 79.02 15.08 59.75c-.58-.55-2.24 1.12-1.67 1.67 21.95 20.96 40.13 38.8 60.13 58.26.4.39.99-.21.61-.6"/><path class="st6" d="M18.48 62.33c-.48.08-1 .18-1.33.54-.45.49-2.06 2.91-1.71 3.67.18.4 1.11 1.2 1.42 1.51.55.53.78 1.29 1.12 1.98.33.69.83.76 1.6.76 1.62 0 4.44-3 5.05-3.7.98-1.11 1.75-.73 2.32-2.09.32-.78-.73-2.1-1.34-2.68-1.76-1.69-5.09-.34-7.13.01"/><path class="st3" d="M64.55 32.83c.5-.58 1.08-1.25 1.85-1.24.77.01 1.26 1.29.53 1.52.7.49 1.4.99 2.1 1.48 2.19-1.98 4.78-3.53 7.56-4.53 1.21-.43 3.55-.28 3.5-1.56-.06-1.75 2.32-1.22 2.63-2.61.22-.95-1.24-1.94-1.29-2.9-.02-.58.9-2.08.81-2.65-.24-1.61-.73-3.17-1.43-4.64-.39-.82-1.93-1.8-1.21-2.36.27-.21 1.76-.39 2.09-.43 2.39-.29 4.25-1.37 6.63-1.66 1.34 2.9 2.42 6.87 2.97 10.01.21 1.23 1.21 2.47 1.43 3.7.18 1.07-.42 2.13-.24 3.19.21 1.18.41 2.37.3 3.56-.26 2.89-2.27 5.28-4.13 7.5-.35.42-.71.87-.8 1.42-.11.71.28 1.4.66 2.01 2.18 3.51 4.34 4.56 6.92 7.79.95 1.19 2.16 4.69 2.85 6.04 1.62 3.17 1.49 6.92 1.32 10.48-1.72 1.58-4.22 2.26-6.51 1.78-.93-.19-1.83-.57-2.77-.73-1.97-.33-3.95.31-5.88.82a45.287 45.287 0 01-17.5 1.04c1.06-1.79.69-4.66-1.36-5.03-3.39-.61-2.4-3.74-3.83-5.25-1.75-1.86-4.36-4.6-6.44-3.12-1.77 1.27-3.7.82-5.54 2.33-3.68 3.01-6.9 4.61-10.43 4.61-1.03 0-2.2.17-2.96.85-1.51 1.36-3.47 1-5.2 1.5-.86.24-1.71.49-2.56.73-1.06.31-1.67 2.49-3.19.92-.9-1.78-1.8-3.56-2.69-5.34-.12-.24-.25-.49-.25-.76-.02-.77.85-1.21 1.58-1.46 1.09-.39 2.18-.8 3.25-1.23 1.58-.62 3.72-.55 4.7-1.93 1.99-2.79 4.47-1.88 6.7-2.81 1.78-.75 3.17-1 4.86-2.94 2.25-2.6 3.94-2.52 5.53-3.58 2.13-1.42 4.05-1.75 5.59-3.8-.16.21-1.12-2.15-2.32-1.38-1.39.91-2.61-.62-2.59-1.01.07-1.04 3.38-1.16 4.06-1.38 4.13-1.34 7.86-3.64 10.7-6.95"/><path class="st2" d="M145.96 77.23c.4-.84.02-.62.58-1.27l1.02.99c-.73.51-1.3.65-1.6.28m3.61-2.8c-.56 1.19.05.68-.74 1.48-.36-.38-.71-.75-1.08-1.13.9-.74 1.41-.67 1.82-.35m6.44 8.96c-1.93-2.04-3.91-4.1-5.91-6.17 1.27-1.23 2.26-2.75 2.81-4.46.15-.46-.15-.87-.53-1.05 0-.26-.23-.53-.57-.47-1.98.38-3.72 1.21-5.17 2.4C123.28 49.57 96.68 23.75 74.14.43c-1.31-1.35-3.43.76-2.07 2.08 23.32 22.52 49.23 48.99 73.3 72.32-1.13 1.25-2 2.73-2.58 4.4-.25.7.47 1.16 1.06 1.07 1.83-.26 3.57-.98 5.05-2.06 2.11 2.03 4.19 4.02 6.26 6 .69.66 1.51-.16.85-.85"/><path class="st6" d="M78.92 12.8c.88.76 1.91 1.44 3.07 1.5 1.15.06 2.42-.7 2.56-1.85.64.58 1.78.27 2.23-.47.44-.75.31-1.73-.12-2.49-.42-.75-1.1-1.33-1.76-1.89l-2.27-1.94c-2.6-2.21-3.97-1.17-5.61 1.11-2.4 3.36-.93 3.59 1.9 6.03"/><path class="st7" d="M55.9 39.77c-.31 1.02.04 1.4.96 1.86.41.21 1.14.2 1.55.31 2.19.58 3.45 1.77 3.65 4.07.13 1.44-.1 2.58.85 3.81 1.02 1.34 2.82 1.76 4.11 2.77.26.2.74-.06.51-.39-.71-.99-1.6-1.29-2.61-1.95-2.71-1.76-1.39-3.5-2.12-5.81-.29-.92-.94-1.71-1.69-2.27s-4.53-1.5-4.45-2.3c.05-.45-.64-.51-.76-.1m11.47 14c1.35 1.8-.72 3.65 1.37 5.24 1.09.83 2.22 1.14 3.02 2.38.71 1.09.86 2.4 1.43 3.55.09.19.4.1.39-.11-.05-1.92-1.03-4.13-2.6-5.29-.44-.33-.94-.54-1.4-.82-1.26-.79-1.14-1.85-1.25-3.15-.07-.83-.09-1.39-.65-2.04-.14-.17-.44.06-.31.24M54.16 41.61c.32-.33.68-.38 1.06-.59.19-.1.15-.4-.06-.45-.55-.14-1.11.29-1.42.72-.18.24.21.53.42.32m4.86-2.16c1.45-.56 2.92-1.43 4.25-2.24 1.02-.62 1.88-1.61 2.14-2.8.04-.16-.18-.33-.3-.18-.36.44-.57.95-.9 1.41-.46.63-1.04 1.01-1.7 1.39-1.2.68-2.51 1.28-3.62 2.11-.14.1-.06.38.13.31m3.09 1.38c1.15.05 2.2-.37 3.07-1.12.91-.78 1.91-2.07 2.23-3.24.04-.15-.16-.28-.27-.16-.71.78-1.06 1.83-1.78 2.63-.85.95-1.95 1.59-3.25 1.57-.21 0-.2.31 0 .32"/><path class="st7" d="M56.58 43.34c.5.06 1.11.23 1.58 0 .15-.07.11-.26 0-.34-.42-.3-1.09-.22-1.58-.25-.39-.02-.38.56 0 .59M75 33.69c-.46 1.55-.48 2.94 1.08 3.73.82.41 1.69.74 2.59.92.67.13 1.25.17 1.9.44.46.18.85.39 1.34.52.32.09.56-.41.23-.56-1.04-.45-1.92-.85-3.03-1.02-.84-.13-1.76-.36-2.5-.79-1.36-.8-1.33-1.8-1.11-3.1.05-.32-.41-.46-.5-.14m7.62 3c1.3.78 5.1 2.63 6.26.82.1-.17-.07-.41-.26-.34-1.98.66-3.97.1-5.79-.86-.24-.13-.45.23-.21.38m5.57-1.75c.42.07.83.14 1.24.21.34.06.47.1.73-.12.07-.05.09-.2.04-.27-.2-.27-.34-.27-.67-.31l-1.25-.12c-.35-.03-.43.56-.09.61m-4.78-7.49c.44 1.68 2.18 2.88 3.65 3.65.92.49 2.8 1.27 3.45.01.08-.16-.02-.44-.24-.41-1.25.17-2.02.13-3.18-.5-1.19-.65-2.68-1.55-3.15-2.9-.11-.33-.61-.2-.53.15m-58.33 34.5c.26.59.54 1.17.81 1.74.25.51.43 1.14.86 1.51.17.14.49.06.47-.19-.04-.57-.4-1.06-.66-1.56-.31-.6-.62-1.21-.96-1.8-.2-.34-.66-.04-.52.3m13.73-5.62c-.39.88-.37 1.86.22 2.64.4.52 1.55 1.38 2.15.71.06-.06.09-.17.03-.24-.32-.45-.94-.43-1.36-.78-.63-.52-.81-1.37-.58-2.13.08-.27-.34-.46-.46-.2m2.09.34c.18.53.44 1.02.8 1.44.28.33.75.87 1.23.73.13-.04.2-.17.17-.29-.09-.39-.55-.56-.81-.82a3.32 3.32 0 01-.8-1.22c-.14-.36-.71-.22-.59.16m13.17-8.41c-.26 1.09-.33 2.22.37 3.17.41.56 1.49 1.57 2.24 1.34.12-.04.21-.17.17-.3-.2-.64-1.08-.83-1.55-1.27-.82-.77-.77-1.83-.71-2.87.01-.29-.45-.36-.52-.07m23.61 14.36c3.46-2.31 7.09-1.41 10.92-.98 1.78.2 3.51.17 4.92-1.03.28-.24-.08-.69-.39-.51-2.78 1.64-5.76.52-8.77.41-2.48-.09-4.81.35-6.87 1.78-.19.14-.01.46.19.33m-1.23-1.44c.97-1.07 1.97-2.16 3.17-2.99 1.31-.89 2.59-.99 4.08-1.28.27-.05.23-.43 0-.5-3.04-1.01-5.93 2.45-7.53 4.49-.15.2.1.47.28.28m-1-3.47c.74-.73 1.52-1.42 2.35-2.06.68-.52 1.56-.93 2.07-1.63.14-.2-.1-.43-.3-.38-.84.18-1.59.93-2.25 1.47-.82.66-1.59 1.38-2.33 2.14-.29.3.16.75.46.46m4.48-16.89c1.91.96 4.43 1.4 6.46.51.4-.18.08-.71-.28-.66-2.14.3-3.92.51-6.03-.21-.21-.08-.35.26-.15.36m4.84-16.59c.82.44 1.66.83 2.55 1.12.56.19 1.33.48 1.78-.08.7-.86-.37-2.54-1.33-2.65-.15-.02-.28.16-.23.29.17.47 1.88 1.93.49 1.9-.39-.01-.92-.29-1.28-.42-.57-.22-1.11-.46-1.65-.73-.38-.19-.71.36-.33.57M44.1 54.79c-.34 1.05.46 1.95 1.4 2.32 1.24.5 2.96.37 4.08-.35.29-.19.11-.64-.23-.56-.8.19-1.49.51-2.33.51-.92 0-2.78-.44-2.44-1.79.08-.31-.39-.44-.48-.13m22.67-7.22c.53 1.57 2.07 3.68 3.72 4.2 1.42.45 3.94-.7 5.02-1.61.18-.15-.02-.39-.22-.36-1.47.23-3.3 1.83-4.85 1.18-1.44-.62-2.38-2.39-3.25-3.59-.14-.2-.51-.09-.42.18"/><path class="st7" d="M70.9 50.3c.7-.37 1.41-.71 2.15-.99.53-.21 1.2-.3 1.6-.74.11-.12.08-.35-.1-.39-.61-.12-1.22.25-1.77.49-.74.34-1.45.74-2.15 1.17-.28.18-.03.62.27.46"/><path class="st8" d="M68.43 119.48c-.16.93-1 1.55-1.72 2.15a16.585 16.585 0 00-4.25 5.24c-.55 1.09-.9 2.62.07 3.36.57.44 1.41.38 2.07.07.66-.3 1.2-.81 1.78-1.24 1.33-.99 12.59-4.59 16.16-7.55.22-.18-6.42-8.96-9.92-11-.44-.26-.91-.52-1.42-.54-.81-.02-1.5.55-2.1 1.09-1.17 1.04-2.42 2.32-2.33 4.03.09 1.59 1.94 2.7 1.66 4.39"/><path class="st9" d="M49.36 99.58c.48 1.38 1.66 2.36 2.79 3.28 4.29 3.47 11.93 14.24 12.75 14.3 1 .08 9.86-4.42 9.43-5.52-.32-.8-3.97-6.83-4.68-7.31-3.86-2.58-2.06-4.32-5.03-7.89 4.64.31 8.65-5 12.55-7.55 5.88-3.85 8.74-7.23 12.8-12.97.1-.14.2-.28.22-.44.06-.55-.68-.78-1.23-.81-3.25-.17-6.51-.33-9.76-.49-1.61-.08-3.25-.16-4.82.2-2.18.51-4.06 1.83-5.86 3.16-4.32 3.17-8.89 6.42-12.58 10.34-2.59 2.74-8.03 7.57-6.58 11.7"/><path class="st2" d="M53.05 98.48c1.05-.16 2.08-.22 3.14-.13.91.08 1.81.41 2.72.43.21 0 .29-.29.11-.4-1.68-.97-4.25-.66-6.07-.28-.26.05-.15.42.1.38m4.53 6.3c2.13 1.05 2.93 3.22 4.09 5.13.72 1.16 1.67 2.54 3.18 2.51.38-.01.48-.6.09-.69-2.21-.55-3.01-3.06-4.2-4.76-.79-1.12-1.74-2.02-3.02-2.54-.19-.08-.33.26-.14.35m7.12 4.01c.38.38 1.11 1.17 1.69.98.14-.04.23-.18.19-.33-.08-.28-.26-.36-.5-.51-.31-.2-.59-.42-.85-.67-.35-.33-.87.19-.53.53m1 5.74c.59-.33 1.19-.66 1.78-.99.52-.28 1.14-.52 1.55-.95.13-.14 0-.35-.18-.31-.58.13-1.11.54-1.62.84-.59.33-1.18.67-1.77 1-.26.15-.02.56.24.41M55.44 94.76c.58.27 1.18.48 1.75.79.5.27.99.78 1.55.88.24.05.41-.17.31-.39-.27-.56-1.07-.89-1.6-1.15-.59-.28-1.22-.53-1.88-.61-.25-.03-.35.37-.13.48"/><path class="st1" d="M64.48 128.24c.41-.31.86-.59 1.33-.8.35-.16.99-.2 1.16-.58.05-.09.02-.19-.06-.25-.37-.26-.97.11-1.33.28-.52.24-.98.56-1.42.94-.21.19.08.58.32.41m4.27-2.02c.34-.1.6-.16.82-.45.08-.1-.01-.25-.11-.28-.33-.1-.56.01-.88.12-.38.14-.22.73.17.61m3.23-1.28c.26-.07.35-.14.51-.36.12-.15-.01-.37-.17-.42-.23-.07-.32-.06-.55.03-.45.18-.29.88.21.75"/><path class="st9" d="M122 105.1c-1.03.94-2.22 1.68-3.48 2.26L11.87 157.05s-7.81 4.21-11.23 0c-3.4-4.21 7.46-1.33 13.44-4.44 5.54-2.87 91.63-41.52 104.26-47.19 1.37-.61 2.58-1.54 3.42-2.78.3-.42.53-.86.59-1.24.2-1.16 3.48.22-.35 3.7"/><path class="st2" d="M96.79 75.45c-2.22 3.48-4.06 4.14-6.78 5.08-2.9 1-7.64 1.13-10.54 2.13-1.29.44-5.98.34-6.7 1.51-.95 1.54 1.16 3.02 1.78 4.72.86 2.38 2.39 2.89 4.06 4.79 1.39 1.58 2.6 4.61 4.2 5.98s3.03 3.18 3.11 5.28c.02.48-.04.97-.31 1.36-.23.32-.58.52-.92.72-3.8 2.17-7.86 3.9-12.05 5.15-.54.16-12.87-19.25-13.32-20.86-.93-3.31-1.59-3.73-2.72-6.97-1.04-2.95-2.29-6.47 0-8.6.99-.93 4.08-3.05 5.36-3.46 3.89-1.26 5.86-3.63 9.77-4.81 3.07-.93 6.19-1.84 9.39-1.86 4.64-.03 6.89-.47 11.47 0 1.94.2 5.18 2.54 5.18 2.54-.12 1.87-.07 5.86-.98 7.3"/><path class="st1" d="M71.54 114.31c-2.58.91-4.35 3.71-4.05 6.43.08.79.48 1.7 1.26 1.79.31.04.61-.06.9-.16 3.04-1.06 6.01-2.32 8.89-3.75 4.52-2.26 8.81-4.95 13.06-7.7.14-.09.3-.19.37-.35.26-.55-.57-.93-1.16-1.09-2.36-.62-4.05-3.08-6.49-3.21-1.14-.06-2.23.42-3.27.89-1.84.82-4.88 1.73-6.09 3.43-1.36 1.91-.76 2.78-3.42 3.72"/><path class="st9" d="M65.04 75.91c1.72.66 3.15 1.36 4.06 3.04.75 1.36 1.28 2.84 2.01 4.21.16.3.58.04.45-.27-.72-1.63-1.49-3.55-2.59-4.96-.97-1.24-2.42-1.78-3.86-2.28-.16-.06-.23.2-.07.26m5.26-.06c.4.87.72 1.78.91 2.72.17.84.11 1.74.38 2.54.1.31.56.34.64 0 .45-1.75-.6-4.04-1.39-5.57-.19-.36-.71-.05-.54.31m4.95 4.64c.09-.52.22-1.04.2-1.57 0-.31-.43-.36-.53-.07-.17.47-.21.98-.28 1.47-.06.4.55.58.61.17m4.66-1.78c1.18.13 2.08-.14 3.16-.6 1.58-.67 3.22-1.16 4.8-1.81 1.55-.64 3.28-1.73 3.39-3.56.01-.2-.29-.28-.39-.1-1.22 2.24-2.79 2.89-5.12 3.7-1.94.68-3.73 1.91-5.84 1.93-.29 0-.28.41 0 .44m6.9-5.22c.49-.32.97-.66 1.43-1.01.4-.31.89-.62 1.15-1.04.14-.24-.14-.47-.36-.36-.43.2-.78.63-1.15.93-.43.35-.89.68-1.35.99-.3.2-.03.69.28.49m-11.94 33.37c.41-1.16 1.94-1.89 2.99-2.34.97-.41 1.99-.49 2.96-.83.31-.1.23-.49-.07-.53-1.95-.27-6.01 1.45-6.29 3.65-.03.25.34.26.41.05m3.05-5.4c.84-.65 1.8-1.54 1.49-2.72-.12-.44-.39-.71-.74-.98-.74-.55-1.26-.97-1.8-1.73-.2-.29-.76-.13-.61.25.25.66.71 1.21 1.29 1.61.52.38 1.18.61 1.33 1.35.15.74-.78 1.47-1.28 1.9-.22.2.1.5.32.32m-11.71-19.5c3.4 1.71 4.98 6.06 5.77 9.52.1.45.75.25.67-.19-.65-3.53-2.8-8.11-6.21-9.74-.27-.13-.51.27-.23.41M72.7 94.1c-.01.43-.11.85.21 1.18.1.11.29.11.39 0 .32-.33.22-.75.21-1.18-.01-.52-.8-.52-.81 0m-.83 12.76c-.07-.48.17-.93.54-1.22.36-.27.72-.21 1.11-.34.13-.04.22-.23.09-.33-.49-.38-1.19-.06-1.6.31-.49.43-.71 1.06-.59 1.7.06.3.49.17.45-.12m-1.02-3.55c.16-.17.38-.27.56-.43.11-.11.06-.33-.1-.37-.37-.07-.64.11-.88.39s.16.69.42.41"/><path class="st8" d="M69.98 118.91c3.44-1.93 6.86-4.01 10.73-4.94 2.55-.62 5.31-.72 6.82-3.15.31-.5-.46-.93-.78-.46-1.91 2.79-6.6 2.62-9.52 3.86-2.66 1.13-5.05 2.76-7.46 4.33-.22.15-.02.49.21.36"/><path class="st8" d="M81.25 112.57c1.3-.17 2.8-.53 3.83-1.4.72-.6.99-1.78.06-2.33-.5-.29-.9.43-.45.76 1.19.86-3.05 2.31-3.51 2.42-.31.07-.25.59.07.55m1.48-2.31c.2-.19.4-.34.52-.59.14-.29-.15-.57-.44-.43-.24.12-.4.32-.58.52-.31.33.17.81.5.5m-9.26 4.4c.6-.01 1.2 0 1.8-.04.14-.01.29-.08.36-.21.08-.17.1-.26 0-.42-.08-.12-.21-.22-.36-.21-.6.04-1.2.11-1.8.17-.44.05-.46.72 0 .71"/><path class="st2" d="M131.78 94.13c-1.07.97-2.3 1.73-3.6 2.34L17.9 147.85s-8.08 4.35-11.61 0c-3.53-4.36 7.7-1.38 13.89-4.59 5.73-2.97 94.75-42.93 107.82-48.8 1.41-.63 2.66-1.6 3.54-2.87.3-.44.54-.89.6-1.28.21-1.21 3.6.22-.36 3.82"/></svg>