<svg version="1" xmlns="http://www.w3.org/2000/svg" width="682.667" height="682.667" viewBox="0 0 512.000000 512.000000"><path d="M288.5 20c-9.3 2.2-28.2 6.4-42 9.5-13.7 3.1-26.2 6.1-27.6 6.6-2.9 1.1-5 4.6-4.4 7.5.2 1.1.4 2.2.4 2.6.2 1.6 4.6 4.8 6.7 4.8 1.3 0 20.6-4.1 43.1-9.1 48.2-10.8 43.5-9.7 45.1-9.8.7-.1 2.4-1.2 3.7-2.6 4.8-4.7 2.2-12.2-4.5-13-1.9-.2-11.1 1.4-20.5 3.5zM353 38.8c-5.4.8-46.7 10.3-49.2 11.3-2.7 1.1-3.6 2.5-4.4 6.7-.5 2.6 4.3 8.2 7 8.2.8 0 12.6-2.5 26.1-5.5 13.6-3 24.9-5.5 25.1-5.5.2 0 1.2-1 2.4-2.2 4.9-5.2.1-14.1-7-13zM267.5 57.6c-3.3.7-6.9 1.5-8 1.8C247.4 62 245 63.7 245 69.6c0 4.7 4.2 7.8 9.5 7 9.8-1.4 22.2-4.4 25.5-6.1 4.7-2.4 5.4-8.1 1.5-12-2.7-2.8-5-3-14-.9zM111 66.1c-20.4 7.6-28.6 11.6-32 15.6-13.5 16.1-13.6 36.3-.3 51 4.1 4.5 18.6 13.8 19.1 12.3.2-.6 6.1 3.4 13 8.7 7 5.3 13.6 9.7 14.6 9.8 1.1.1 4.2-.2 7-.7 2.8-.4 7-1 9.4-1.3l4.3-.5-6.2 9.1c-3.4 5-7 9.3-7.8 9.6-.9.3-2.5.9-3.6 1.3-1.1.5-12.6 4.9-25.5 10-12.9 5-24.4 9.5-25.5 10-2.8 1.3-5.7 2-10.1 2.6-2.2.2-5.4.7-7.3.9-2.8.4-4.2-.2-7.8-3.1l-4.4-3.6-6.7 5.8c-3.7 3.2-8.6 7.7-10.9 9.9l-4.2 4 4.6 11.3 4.5 11.2-2.1 1.8c-3.4 2.8-3.7 7.4-.8 10.7 2.8 3.3 3.2 3.3 25.7 2.1 7.4-.4 16.7-.9 20.5-1.1 3.9-.2 11.4-.7 16.8-1 5.3-.3 14.1-.7 19.5-1 5.3-.3 14-.7 19.2-1.1 18.4-1.1 22.6-1.3 36-1.9 7.4-.4 15.4-.8 17.7-.9 4.1-.3 4.3-.1 5.4 3.3 3.1 9.6 9.8 17.4 25.9 30.2 5.8 4.5 11.4 9.1 12.5 10.1 1.1 1 8.4 6.9 16.2 13.1 7.8 6.3 16 13 18.2 14.8l4.1 3.4-11.2 7.5c-6.1 4.1-12.2 8.6-13.6 10-8.1 8.5-9.1 22.9-2.2 32.2 2 2.7 2 2.8.2 2.8-1 0-12.2 2.3-24.8 5.1-12.6 2.8-23.6 5.2-24.4 5.4-.8.2-10.7 2.4-22 4.9-11.3 2.6-21.4 4.8-22.5 5.1-5.9 1.2-21.8 4.7-27 6-3.3.8-7.1 1.6-8.5 1.9-1.4.2-6.8 1.4-12 2.6-5.2 1.2-10.4 2.3-11.5 2.5-1.8.4-5.8 1.3-20 4.5-2.2.5-5.6 1.3-7.5 1.7-1.9.4-3.7.7-4 .8-.3.1-3.2.7-6.6 1.4-8.5 1.8-8.9 2.1-7.5 6.4 1.7 4.9 6.4 11.3 10.6 13.9 3.9 2.6 4.3 3.3 1.8 3.5-3.9.4-24.4 5.3-26.4 6.3-2 1.1-3.9 4.8-3.9 7.6 0 .9 1.3 2.8 2.9 4.4 2.1 2.2 3.6 2.8 5.7 2.5 1.6-.2 19.3-4.1 39.4-8.5 20.1-4.5 40.3-9 45-10 4.7-1 13.7-3 20-4.5 6.3-1.4 12.6-2.8 14-3.1 1.4-.3 11.5-2.5 22.5-5s21.1-4.8 22.5-5c1.4-.3 3.3-.7 4.2-1 1-.3 3-.8 4.5-1 1.6-.3 8.9-1.9 16.3-3.5 7.4-1.7 14.6-3.3 16-3.5 1.4-.3 3.3-.7 4.2-1 .9-.3 2.5-.7 3.5-.9 1-.2 7-1.5 13.3-2.9 6.3-1.5 12.4-2.8 13.5-3 1.9-.4 15.5-3.4 18.5-4.1 3.4-.8 20.6-4.7 22-5 .8-.2 8-1.8 16-3.5 8-1.8 15.2-3.4 16-3.5.8-.2 4.4-1 8-1.9 3.6-.8 7.6-1.7 9-2 1.4-.3 6.8-1.4 12-2.6 5.2-1.2 10.2-2.3 11-2.5.8-.2 8.7-2 17.5-3.9 8.8-2 16.9-3.8 18-4 1.1-.3 14.4-3.2 29.5-6.6 15.1-3.4 28.6-6.4 30-6.6 10-1.9 14-4.6 14-9.6 0-1.8-1-3.9-2.6-5.5-2.3-2.3-3.1-2.5-7.7-1.9-2.9.3-6.2.9-7.5 1.2l-2.3.7 2-4c3.1-5.9 4.9-18.9 2.8-20.9-.2-.3-6.7.9-14.3 2.6-7.7 1.7-15.7 3.5-17.9 4-2.2.4-9.4 2-16 3.5s-13.1 2.9-14.5 3.1c-1.4.3-4.3 1-6.5 1.5s-5.1 1.2-6.5 1.5c-1.4.3-6.5 1.4-11.5 2.5-4.9 1.2-10.1 2.3-11.5 2.5-1.4.3-4.3 1-6.5 1.6-2.2.5-5.1 1.2-6.5 1.5-2.1.4-16.3 3.5-22.5 4.9-1.1.3-3.1.7-4.5 1-1.4.3-4.1.9-6 1.4-1.9.5-5.3 1.2-7.5 1.6-2.2.3-4.3.8-4.7 1.1-1.1.6-1.3 1.2 4.7-16.7l5.5-16.4-3.6-5.6c-11.6-17.5-20.1-27.8-40.4-48.9-3-3.2-8-8.6-11-12.1-3-3.6-7-8.1-8.9-10.2l-3.3-3.8 5.3-.2c3 0 6.5-.2 7.9-.3 1.4-.2 8.8-.6 16.5-1 7.7-.3 16.5-.8 19.5-1 3-.2 11.4-.6 18.5-1 7.2-.4 15.5-.8 18.5-1 3-.1 11.4-.6 18.5-1 7.2-.4 15.5-.8 18.5-1 3-.2 11.6-.7 19-1 7.4-.4 15-.8 16.7-1 3.9-.4 4-.3 4.8 6.1.8 6.2 2.7 9.1 6.4 9.9 3.2.7 8.5-1.4 9.4-3.8.3-.8.3-4.1.1-7.3l-.4-6 3.5-.1c5.7-.1 9.3-2.1 10.5-5.8 2.1-6.4-2.5-10.9-10.7-10.5-6.3.3-6.3.3-6.3-4.1 0-3.1-.6-4.7-2.9-7-3.3-3.3-5-3.5-9.1-1.4-3.4 1.7-4.3 4-3.8 9.7.2 4 .1 4.2-2.7 4.4-1.7.1-8.8.5-16 .9-7.1.3-15.5.8-18.5 1-3 .2-12.2.6-20.5 1-8.2.4-15.8.9-16.9 1.1-1.2.2-.1-1.5 3.3-4.8 9.4-9.6 13.9-21.1 13.7-34.8-.2-10.3-2.4-17.2-8.1-26-10.1-15.6-21.7-23.4-51-34.4-10-3.7-28.5-9.2-37.8-11.2-16.1-3.5-27.1-5.1-45.3-6.8-2.2-.2-6.6-1.8-9.8-3.6-5-2.9-6.8-3.3-13-3.4-8.1 0-14.1 2.3-19.7 7.7-3.6 3.5-6.2 3.7-9.6.7-1-.9-6.6-5.8-12.4-11-5.8-5.2-14.2-12.2-18.6-15.5-4.4-3.2-8-6.4-8-7-.1-2.9-1.6-13.1-2-13.8-.6-1 .2-1.3-23.3 7.4zm97.3 127.5c-3.7 4.9-7.3 9.5-8.1 10.3-1.7 1.7-6.6 11.6-8 16.1-1 3.1-1.9 7.5-2.1 10.5-.1.6-2.7 1.1-5.8 1.2-3.2 0-9.8.4-14.8.7-4.9.3-13.7.8-19.5 1.1-5.8.3-13.4.7-17 1-3.6.2-12.6.7-20 1-7.4.4-15 .8-16.9 1.1-1.9.2-3 0-2.5-.4.5-.5 12.2-5.5 25.9-11.1 13.8-5.7 26.8-11.1 29-12 2.2-1 6-2.6 8.5-3.6 4.5-1.9 8.3-4.9 19.2-15.2l5.6-5.3 16.4-2.3c8.9-1.3 16.4-2.2 16.6-2.1.2.1-2.7 4.2-6.5 9z"/><path d="M379 270.5c-12.9 3-25.4 5.7-27.7 6.1-8.5 1.3-12 8.8-6.7 14.1 3.2 3.2 4.8 3 31.9-3.2 11-2.5 21.6-4.8 23.5-5.1 7.2-1.2 10.9-3.4 11.9-7.1 1.2-4.2-.1-7.6-3.6-9.2-3.3-1.5-3.1-1.6-29.3 4.4zM374.5 304.3c-8.8 1.9-13.7 3.5-15.2 5-2.3 2-2.9 5.9-1.7 9.2.9 2.2 5.7 4.5 8.5 4 5.8-1.1 21.7-4.7 24.5-5.6 4.8-1.5 7-8.2 4-12.2-2.6-3.4-6.4-3.5-20.1-.4zM452.5 385.2c-3.8.9-8.1 1.9-9.5 2.2-5.9 1.1-51.7 11.6-53.4 12.2-2.3.9-4.4 5.9-3.8 9.1.6 3.2 5.6 6.3 9.1 5.7 1.4-.3 16.8-3.7 34.1-7.6 17.3-3.8 32.9-7.2 34.5-7.5 3.6-.5 8.5-5.4 8-8-.2-1-.4-2.3-.4-3-.1-.7-1.1-2.2-2.3-3.3-2.6-2.4-6-2.4-16.3.2zM360.5 405.7c-.5.1-10 2.3-21 4.8-17.1 3.9-20.3 4.9-22.2 7.1-2.8 3.1-2.9 5-.3 9.1 2.5 4.2 4.7 4.2 22.1.2 15.5-3.5 16.2-3.7 20.9-4.5 6.9-1.3 9.9-4 10-9 0-4.3-5.7-9-9.5-7.7zM275.5 424.6c-3.3.8-7.3 1.6-8.9 1.9-1.6.3-3.2.8-3.6 1-.4.2-2 .6-3.6.9-1.6.3-19.1 4.2-38.9 8.6-19.8 4.5-37.1 8.3-38.5 8.6-1.4.3-4.1.9-6 1.4-1.9.5-4.9 1.2-6.7 1.5-7.6 1.3-10.3 3.6-10.3 9 0 3.1 4.1 7.5 7 7.5 1.7 0 34.5-7.1 81-17.5.8-.2 10.3-2.3 21-4.6 15.2-3.4 20-4.8 21.8-6.6 3-3 2.9-7.7-.3-10.8-2.7-2.8-4.9-2.9-14-.9zM366.5 437.2c-3.8.9-8.1 1.9-9.5 2.2-1.4.2-9.6 2-18.3 4-8.7 2-16.8 3.8-18 4-1.2.2-10.5 2.3-20.7 4.6s-20.4 4.6-22.8 5.1c-6 1.2-7.8 2.4-9.1 6-.8 2.4-.7 3.7.5 6 1.7 3.4 3.4 4.3 7.8 4.2 2.4-.1 74.8-16 101-22.2 4.9-1.2 6.5-2.8 7.2-7.2.5-2.8.1-3.9-2.2-6.2-3.1-3.1-5.1-3.2-15.9-.5zM117.5 460c-11.2 1.9-37.4 8.2-40.2 9.6-6 3.1-5.2 12.4 1.3 14 1.5.4 7.7-.5 14.7-2 6.7-1.5 13.4-3 14.9-3.2 15.8-2.9 20.7-6 19.4-12.6-.8-4.5-4.6-6.7-10.1-5.8zM225.4 468.5c-2.1.6-4.3 1.2-4.9 1.3-.5.1-3.2.6-6 1.2-21.3 4.8-21.8 5-23.6 9.2-1 2.6-1 3.5.6 6.4 2.4 4.6 5.1 4.9 18 2 6.1-1.4 12.4-2.7 14.2-3.1 1.8-.3 4.3-.9 5.7-1.5 1.5-.5 2.6-.7 2.6-.4 0 .2 1.3-.2 3-1.1 3.8-2 5.3-4.9 4.6-8.9-1-5.2-6.8-7.3-14.2-5.1z"/></svg>